<svg xmlns="http://www.w3.org/2000/svg" width="24.452" height="23.432" viewBox="0 0 24.452 23.432">
  <g id="Icon_feather-shopping-cart" data-name="Icon feather-shopping-cart" transform="translate(-0.5 -0.5)">
    <path id="Path_376" data-name="Path 376" d="M14.041,31.021A1.021,1.021,0,1,1,13.021,30,1.021,1.021,0,0,1,14.041,31.021Z" transform="translate(-3.356 -9.109)" fill="none" stroke="#000" stroke-linecap="round" stroke-linejoin="round" stroke-width="2"/>
    <path id="Path_377" data-name="Path 377" d="M30.541,31.021A1.021,1.021,0,1,1,29.521,30,1.021,1.021,0,0,1,30.541,31.021Z" transform="translate(-8.63 -9.109)" fill="none" stroke="#000" stroke-linecap="round" stroke-linejoin="round" stroke-width="2"/>
    <path id="Path_378" data-name="Path 378" d="M1.5,1.5H5.582L8.317,15.165a2.041,2.041,0,0,0,2.041,1.643h9.92a2.041,2.041,0,0,0,2.041-1.643L23.952,6.6H6.6" fill="none" stroke="#000" stroke-linecap="round" stroke-linejoin="round" stroke-width="2"/>
  </g>
</svg>
