<svg xmlns="http://www.w3.org/2000/svg" width="30.105" height="27.29" viewBox="0 0 30.105 27.29">
  <g id="hamberger" transform="translate(0 -1.88)">
    <g id="Group_2" data-name="Group 2" transform="translate(0 1.879)">
      <path id="Path_5" data-name="Path 5" d="M0,4.472A2.517,2.517,0,0,1,2.433,1.88h25.24a2.517,2.517,0,0,1,2.433,2.592,2.517,2.517,0,0,1-2.433,2.592H2.433A2.517,2.517,0,0,1,0,4.472Zm27.673,8.445H2.433a2.268,2.268,0,0,0-2.1,1.264,2.876,2.876,0,0,0,0,2.67,2.268,2.268,0,0,0,2.1,1.264h25.24a2.268,2.268,0,0,0,2.1-1.264,2.876,2.876,0,0,0,0-2.67A2.268,2.268,0,0,0,27.673,12.918Zm0,11.051H2.433a2.268,2.268,0,0,0-2.1,1.264,2.876,2.876,0,0,0,0,2.67,2.268,2.268,0,0,0,2.1,1.264h25.24a2.268,2.268,0,0,0,2.1-1.264,2.876,2.876,0,0,0,0-2.67,2.268,2.268,0,0,0-2.1-1.264Z" transform="translate(0 -1.879)" fill="#77243b"/>
    </g>
  </g>
</svg>
