<svg xmlns="http://www.w3.org/2000/svg" xmlns:xlink="http://www.w3.org/1999/xlink" width="50.387" height="31.5" viewBox="0 0 50.387 31.5">
  <defs>
    <linearGradient id="linear-gradient" y1="0.5" x2="1" y2="0.5" gradientUnits="objectBoundingBox">
      <stop offset="0" stop-color="#e70000" stop-opacity="0"/>
      <stop offset="0.332" stop-color="#de0000" stop-opacity="0.451"/>
      <stop offset="0.736" stop-color="#cd0000"/>
      <stop offset="0.793" stop-color="#c20000"/>
      <stop offset="0.892" stop-color="#a60000"/>
      <stop offset="1" stop-color="maroon"/>
    </linearGradient>
  </defs>
  <g id="bank" transform="translate(-0.533 -97.948)">
    <g id="Group_1" data-name="Group 1" transform="translate(0.783 98.198)">
      <path id="Path_1" data-name="Path 1" d="M47.734,98.685a2.451,2.451,0,0,1,2.448,2.448v25.129a2.451,2.451,0,0,1-2.448,2.448H3.718a2.451,2.451,0,0,1-2.448-2.448V101.133a2.451,2.451,0,0,1,2.448-2.448H47.734m0-.487H3.718a2.935,2.935,0,0,0-2.935,2.935v25.129A2.935,2.935,0,0,0,3.718,129.2H47.734a2.935,2.935,0,0,0,2.935-2.935V101.133A2.935,2.935,0,0,0,47.734,98.2Z" transform="translate(-0.783 -98.198)" fill="#f2f4f7" stroke="#f2f4f7" stroke-width="0.5"/>
    </g>
    <g id="Group_4" data-name="Group 4" transform="translate(4.582 106.452)">
      <g id="Group_2" data-name="Group 2" transform="translate(0.607 8.69)">
        <path id="Path_2" data-name="Path 2" d="M47.3,279.339V274.9H46v-1.375h4.191V274.9h-1.3v4.441Z" transform="translate(-45.998 -273.384)" fill="#00afd8"/>
        <path id="Path_3" data-name="Path 3" d="M96.961,279.339v-5.816h1.657a6.916,6.916,0,0,1,1.357.089,1.734,1.734,0,0,1,.662.3,1.57,1.57,0,0,1,.483.608,1.936,1.936,0,0,1,.169.814,1.728,1.728,0,0,1-.332,1.1,1.618,1.618,0,0,1-.967.562l1.585,2.344H99.782l-1.335-2.276v2.276Zm1.486-3.067h.294a1.271,1.271,0,0,0,.749-.175.636.636,0,0,0,.236-.548.77.77,0,0,0-.22-.622,1.16,1.16,0,0,0-.741-.185h-.318v1.529Z" transform="translate(-91.995 -273.384)" fill="#00afd8"/>
        <path id="Path_4" data-name="Path 4" d="M143.481,279.339l2.006-5.816h1.986l2.01,5.816h-1.577l-.294-1.041H145.36l-.3,1.041Zm2.221-2.173h1.577l-.592-1.919q-.028-.087-.076-.282l-.123-.5q-.052.215-.1.409t-.1.373Z" transform="translate(-133.982 -273.384)" fill="#00afd8"/>
        <path id="Path_5" data-name="Path 5" d="M210.795,279.338v-5.816h1.529l2.2,2.991a4.212,4.212,0,0,1,.208.368q.145.276.32.657-.048-.361-.069-.643t-.022-.5v-2.872h1.521v5.816h-1.521l-2.2-3a3.349,3.349,0,0,1-.213-.367q-.145-.276-.316-.65.048.366.069.648t.022.5v2.872Z" transform="translate(-194.738 -273.383)" fill="#00afd8"/>
        <path id="Path_6" data-name="Path 6" d="M277.964,276.173a2.874,2.874,0,0,0,.7.6,1.359,1.359,0,0,0,.685.2.788.788,0,0,0,.522-.171.54.54,0,0,0,.2-.433.567.567,0,0,0-.177-.447,2.239,2.239,0,0,0-.8-.324,2.61,2.61,0,0,1-1.208-.6,1.4,1.4,0,0,1-.354-1.013,1.786,1.786,0,0,1,.558-1.361,2.024,2.024,0,0,1,1.448-.526,3.161,3.161,0,0,1,.912.129,2.949,2.949,0,0,1,.816.391l-.5,1.14a2.082,2.082,0,0,0-.554-.347,1.465,1.465,0,0,0-.562-.117.744.744,0,0,0-.465.137.424.424,0,0,0-.179.352.432.432,0,0,0,.157.349,1.7,1.7,0,0,0,.606.25l.072.02a2.97,2.97,0,0,1,1.275.576,1.422,1.422,0,0,1,.314.514,1.964,1.964,0,0,1,.107.665,1.931,1.931,0,0,1-.608,1.488,2.293,2.293,0,0,1-1.621.562,2.866,2.866,0,0,1-1.106-.207,3.132,3.132,0,0,1-.959-.648Z" transform="translate(-254.716 -272.097)" fill="#00afd8"/>
        <path id="Path_7" data-name="Path 7" d="M330.458,279.339v-5.816h3.564V274.8H332v1.009h1.9v1.247H332v2.284Z" transform="translate(-302.741 -273.384)" fill="#00afd8"/>
        <path id="Path_8" data-name="Path 8" d="M375.878,279.339v-5.816h3.563V274.8h-2.018v1.009h1.9v1.247h-1.9v.981h2.018v1.3Z" transform="translate(-343.735 -273.384)" fill="#00afd8"/>
        <path id="Path_9" data-name="Path 9" d="M423.213,279.339v-5.816h1.657a6.915,6.915,0,0,1,1.357.089,1.732,1.732,0,0,1,.661.3,1.568,1.568,0,0,1,.483.608,1.937,1.937,0,0,1,.169.814,1.729,1.729,0,0,1-.332,1.1,1.618,1.618,0,0,1-.967.562l1.585,2.344h-1.792l-1.335-2.276v2.276Zm1.486-3.067h.294a1.271,1.271,0,0,0,.749-.175.637.637,0,0,0,.236-.548.77.77,0,0,0-.22-.622,1.16,1.16,0,0,0-.741-.185H424.7Z" transform="translate(-386.458 -273.384)" fill="#00afd8"/>
      </g>
      <g id="Group_3" data-name="Group 3" transform="translate(10.284 0.02)">
        <path id="Path_10" data-name="Path 10" d="M145.31,190.87v-7.755h2.124a13.317,13.317,0,0,1,1.835.085,2.783,2.783,0,0,1,.9.291,1.651,1.651,0,0,1,.654.638,1.851,1.851,0,0,1,.225.924,1.554,1.554,0,0,1-.336,1.051,2.119,2.119,0,0,1-1.073.591,1.855,1.855,0,0,1,1.292.58,1.982,1.982,0,0,1,.466,1.38,2.207,2.207,0,0,1-.262,1.091,1.812,1.812,0,0,1-.749.731,3.082,3.082,0,0,1-.98.3,14.043,14.043,0,0,1-1.907.09H145.31Zm1.96-4.656h.424a2.318,2.318,0,0,0,1.075-.172.635.635,0,0,0,.291-.6.68.68,0,0,0-.273-.617,2.155,2.155,0,0,0-1.062-.177h-.456Zm0,3.072h.742a2.192,2.192,0,0,0,1.065-.188.674.674,0,0,0,.312-.628.762.762,0,0,0-.286-.681,2.038,2.038,0,0,0-1.059-.193h-.773v1.69Z" transform="translate(-145.31 -183.115)" fill="#006e90"/>
        <path id="Path_11" data-name="Path 11" d="M211.468,190.87l2.675-7.755h2.648l2.68,7.755h-2.1l-.392-1.388h-3l-.4,1.388Zm2.961-2.9h2.1l-.789-2.558q-.037-.116-.1-.376l-.164-.667q-.069.286-.135.546t-.135.5Z" transform="translate(-205.022 -183.115)" fill="#006e90"/>
        <path id="Path_12" data-name="Path 12" d="M301.22,190.87v-7.755h2.039l2.929,3.988a5.623,5.623,0,0,1,.278.49q.193.368.427.877-.064-.482-.093-.858t-.029-.667v-3.83H308.8v7.755h-2.029l-2.929-4a4.434,4.434,0,0,1-.283-.49q-.193-.368-.421-.866.064.487.093.863t.029.667v3.83Z" transform="translate(-286.028 -183.115)" fill="#006e90"/>
        <path id="Path_13" data-name="Path 13" d="M396.08,190.87v-7.755h2.092v3.522l2.452-3.522h2.463l-2.866,3.782,3.115,3.973H400.7l-2.527-3.48v3.48H396.08Z" transform="translate(-371.646 -183.115)" fill="#006e90"/>
      </g>
      <rect id="Rectangle_1" data-name="Rectangle 1" width="8.588" height="1.537" transform="translate(0 0)" fill="url(#linear-gradient)"/>
      <rect id="Rectangle_2" data-name="Rectangle 2" width="8.588" height="1.537" transform="translate(0 2.983)" fill="url(#linear-gradient)"/>
      <rect id="Rectangle_3" data-name="Rectangle 3" width="8.588" height="1.537" transform="translate(0 6.238)" fill="url(#linear-gradient)"/>
    </g>
  </g>
</svg>
