<svg width="88" height="30" viewBox="0 0 88 30" fill="none" xmlns="http://www.w3.org/2000/svg">
<path d="M19.5091 11.9499H16.3631V9.5499C16.3631 7.95622 15.73 6.4278 14.6031 5.3009C13.4762 4.17399 11.9477 3.5409 10.3541 3.5409C8.76037 3.5409 7.23196 4.17399 6.10505 5.3009C4.97814 6.4278 4.34506 7.95622 4.34506 9.5499V11.9499H1.20605V9.5499C1.20605 7.12317 2.17007 4.79583 3.88603 3.07988C5.60199 1.36392 7.92932 0.399902 10.3561 0.399902C12.7828 0.399902 15.1101 1.36392 16.8261 3.07988C18.542 4.79583 19.5061 7.12317 19.5061 9.5499L19.5091 11.9499Z" fill="#D5D5D9"/>
<path d="M0.517004 11.895H20.195C20.2634 11.895 20.3311 11.9086 20.3942 11.9349C20.4574 11.9613 20.5146 11.9999 20.5627 12.0486C20.6108 12.0972 20.6488 12.1549 20.6744 12.2183C20.7 12.2817 20.7128 12.3496 20.712 12.418V24.618C20.712 25.9396 20.187 27.207 19.2525 28.1415C18.318 29.076 17.0506 29.601 15.729 29.601H4.983C4.32812 29.601 3.67966 29.4719 3.07471 29.2211C2.46975 28.9703 1.92016 28.6028 1.45737 28.1394C0.994575 27.6761 0.627655 27.126 0.377588 26.5208C0.127522 25.9155 -0.000784927 25.2669 3.61261e-06 24.612V12.418C3.61261e-06 12.2809 0.0544731 12.1494 0.151429 12.0524C0.248386 11.9555 0.379887 11.901 0.517004 11.901V11.895Z" fill="#8EBD00"/>
<g style="mix-blend-mode:multiply" opacity="0.1">
<path d="M20.7124 11.895H10.3564V29.596H20.7124V11.895Z" fill="#134200"/>
</g>
<path d="M9.43429 24.2637L4.57129 19.7007L6.64529 17.7577L9.43429 20.3717L15.0343 15.1167L17.1073 17.0617L9.43429 24.2637Z" fill="white"/>
<path d="M29.1373 12.2229C28.7635 12.0832 28.4013 11.914 28.0543 11.7169C27.7485 11.5435 27.473 11.3216 27.2383 11.0599C27.0058 10.7919 26.8278 10.4811 26.7143 10.1449C26.5841 9.73175 26.5236 9.29984 26.5353 8.86685C26.5243 8.3174 26.6307 7.77192 26.8473 7.26685C27.046 6.81616 27.3469 6.41797 27.7263 6.10385C28.1271 5.77835 28.5893 5.53688 29.0853 5.39385C29.6681 5.22676 30.2721 5.14591 30.8783 5.15385C31.4488 5.1485 32.0184 5.20077 32.5783 5.30985C33.1417 5.42914 33.6966 5.58547 34.2393 5.77785C34.1643 6.4811 33.9723 7.16687 33.6713 7.80685L33.1293 7.59485C32.9384 7.52091 32.7422 7.46141 32.5423 7.41685C32.3112 7.36606 32.0775 7.32767 31.8423 7.30185C31.5474 7.27063 31.2509 7.25594 30.9543 7.25785C30.7488 7.25795 30.5438 7.27567 30.3413 7.31085C30.1447 7.34421 29.9555 7.41191 29.7823 7.51085C29.6117 7.61149 29.4706 7.75532 29.3733 7.92785C29.2595 8.15016 29.2057 8.39836 29.2173 8.64785C29.2098 8.85341 29.2527 9.05768 29.3423 9.24285C29.4238 9.40192 29.5388 9.54145 29.6793 9.65185C29.8253 9.76388 29.9853 9.85633 30.1553 9.92685C30.3333 10.0029 30.5093 10.0829 30.6873 10.1489L31.7533 10.5579C32.2027 10.7359 32.611 10.9189 32.9783 11.1069C33.3292 11.2831 33.6461 11.5201 33.9143 11.8069C34.1747 12.1025 34.3733 12.4472 34.4983 12.8209C34.6551 13.2957 34.7295 13.7939 34.7183 14.2939C34.7253 14.8611 34.6132 15.4236 34.3893 15.9449C34.1739 16.4373 33.8494 16.8743 33.4403 17.2229C32.9878 17.5989 32.466 17.8826 31.9043 18.0579C31.2226 18.2665 30.5121 18.3654 29.7993 18.3509C29.4093 18.3509 29.0593 18.3399 28.7523 18.3149C28.4573 18.2938 28.1638 18.2554 27.8733 18.1999C27.5946 18.1479 27.3189 18.0812 27.0473 17.9999C26.7747 17.9165 26.4906 17.8165 26.1953 17.6999C26.2358 17.3375 26.3026 16.9785 26.3953 16.6259C26.49 16.2525 26.6023 15.8769 26.7323 15.4989C27.1865 15.6861 27.6546 15.8376 28.1323 15.9519C28.5917 16.056 29.0613 16.1084 29.5323 16.1079C30.1459 16.1409 30.756 15.9961 31.2893 15.6909C31.4984 15.5546 31.6678 15.3654 31.7802 15.1425C31.8926 14.9197 31.9441 14.671 31.9293 14.4219C31.9358 14.1754 31.8823 13.931 31.7733 13.7099C31.6761 13.5261 31.5435 13.3633 31.3833 13.2309C31.2179 13.0981 31.0357 12.9878 30.8413 12.9029C30.6413 12.8142 30.4333 12.7282 30.2173 12.6449L29.1373 12.2229Z" fill="#262626"/>
<path d="M36.5762 5.36914H43.8262C43.8968 5.72581 43.9323 6.08855 43.9322 6.45214C43.9335 6.82738 43.898 7.20184 43.8262 7.57014H39.1802V10.3401H42.8742C42.943 10.7028 42.9785 11.071 42.9802 11.4401C42.9803 11.8153 42.9448 12.1897 42.8742 12.5581H39.1802V15.9291H43.9572C44.0278 16.2858 44.0633 16.6485 44.0632 17.0121C44.0643 17.3877 44.0288 17.7625 43.9572 18.1311H36.5762V5.36914Z" fill="#262626"/>
<path d="M54.4392 15.7217C54.5927 16.0517 54.7204 16.393 54.8212 16.7427C54.9217 17.089 54.9962 17.4423 55.0442 17.7997C54.5056 18.0034 53.9478 18.1518 53.3792 18.2427C52.8527 18.3156 52.3217 18.351 51.7902 18.3487C50.8817 18.3689 49.9788 18.2025 49.1372 17.8597C48.4057 17.5542 47.753 17.0868 47.2282 16.4927C46.7005 15.8856 46.3045 15.1756 46.0652 14.4077C45.7974 13.5577 45.6651 12.6708 45.6732 11.7797C45.6694 10.883 45.8116 9.99168 46.0942 9.14069C46.3458 8.36958 46.7475 7.65587 47.2762 7.04069C47.7984 6.44348 48.4476 5.97061 49.1762 5.65669C49.987 5.31192 50.8613 5.14157 51.7422 5.15669C52.2681 5.154 52.7934 5.18943 53.3142 5.26269C53.8475 5.35009 54.3688 5.49978 54.8672 5.70869C54.8435 6.06264 54.7722 6.41178 54.6552 6.74669C54.5365 7.08602 54.4059 7.42669 54.2632 7.76869C53.9043 7.64224 53.5366 7.54198 53.1632 7.46869C52.788 7.40482 52.4078 7.37503 52.0272 7.37969C51.5346 7.35025 51.0419 7.43513 50.5876 7.62768C50.1333 7.82024 49.7296 8.11526 49.4082 8.48969C48.7319 9.44942 48.4086 10.6136 48.4932 11.7847C48.4932 14.672 49.7185 16.1164 52.1692 16.1177C52.5554 16.1217 52.9412 16.092 53.3222 16.0287C53.7018 15.9549 54.0752 15.8523 54.4392 15.7217Z" fill="#262626"/>
<path d="M56.9082 5.36878C57.1255 5.3338 57.3445 5.30978 57.5642 5.29679C57.7782 5.28579 57.9962 5.27979 58.2212 5.27979C58.4462 5.27979 58.6302 5.27979 58.8452 5.29679C59.0602 5.31379 59.2762 5.33278 59.5022 5.36878V11.9908C59.4977 12.6104 59.5244 13.2299 59.5822 13.8468C59.616 14.2878 59.7242 14.7199 59.9022 15.1248C60.0401 15.4399 60.2766 15.7017 60.5762 15.8708C60.9256 16.0447 61.3133 16.1272 61.7032 16.1108C62.0906 16.128 62.4759 16.0453 62.8222 15.8708C63.1176 15.6989 63.3508 15.4377 63.4882 15.1248C63.6627 14.7191 63.7681 14.2872 63.8002 13.8468C63.8592 13.2299 63.8862 12.6104 63.8812 11.9908V5.36878C64.1172 5.33278 64.3492 5.30979 64.5552 5.29679C64.7612 5.28379 64.9752 5.27979 65.1792 5.27979C65.3832 5.27979 65.6082 5.27979 65.8272 5.29679C66.0503 5.30946 66.2726 5.33349 66.4932 5.36878V12.5478C66.5004 13.3415 66.4294 14.134 66.2812 14.9138C66.1634 15.5743 65.903 16.2012 65.5182 16.7508C65.1409 17.2683 64.6324 17.676 64.0452 17.9318C62.534 18.4873 60.8745 18.4873 59.3632 17.9318C58.7752 17.6765 58.266 17.2688 57.8882 16.7508C57.5034 16.201 57.2424 15.5742 57.1232 14.9138C56.9755 14.1322 56.9045 13.3381 56.9112 12.5428L56.9082 5.36878Z" fill="#262626"/>
<path d="M69.0158 5.36888C69.5358 5.30955 70.0244 5.25755 70.4818 5.21288C70.9378 5.17188 71.4428 5.15088 72.0008 5.15088C72.6469 5.1505 73.2917 5.21009 73.9268 5.32888C74.5314 5.43431 75.1126 5.64555 75.6438 5.95288C76.1509 6.25217 76.5754 6.67321 76.8788 7.17788C77.2118 7.77656 77.3737 8.45533 77.3468 9.13988C77.3537 9.563 77.2937 9.98455 77.1688 10.3889C77.0626 10.7254 76.9102 11.0454 76.7158 11.3399C76.5456 11.5958 76.3459 11.8307 76.1208 12.0399C75.9352 12.2135 75.7344 12.3701 75.5208 12.5079L75.2208 12.7079L78.3278 18.1079C78.0908 18.1309 77.8428 18.1559 77.5818 18.1799C77.3208 18.2039 77.0538 18.2159 76.7818 18.2159C76.3359 18.2161 75.8908 18.18 75.4508 18.1079L72.1108 12.1939L72.5368 11.9819C72.7018 11.8989 72.9038 11.7929 73.1368 11.6699C73.3835 11.5318 73.6139 11.3664 73.8238 11.1769C74.0495 10.974 74.2386 10.7339 74.3828 10.4669C74.5824 10.0364 74.6492 9.55627 74.5748 9.08768C74.5003 8.61908 74.288 8.18328 73.9648 7.83588C73.4934 7.47213 72.9086 7.28687 72.3138 7.31288C72.0761 7.31096 71.8386 7.32868 71.6038 7.36588V18.1359C71.3918 18.1589 71.1778 18.1799 70.9658 18.1969C70.7538 18.2139 70.5448 18.2249 70.3418 18.2249C70.1388 18.2249 69.9268 18.2249 69.7018 18.2059C69.4768 18.1869 69.2458 18.1699 69.0088 18.1359L69.0158 5.36888Z" fill="#262626"/>
<path d="M79.7422 5.36914H86.9872C87.0578 5.72581 87.0933 6.08854 87.0932 6.45214C87.0945 6.82738 87.059 7.20184 86.9872 7.57014H82.3342V10.3401H86.0272C86.0975 10.7026 86.1336 11.0709 86.1352 11.4401C86.1354 11.8154 86.0992 12.1898 86.0272 12.5581H82.3342V15.9291H87.1102C87.1816 16.2857 87.2171 16.6485 87.2162 17.0121C87.2181 17.3877 87.1827 17.7626 87.1102 18.1311H79.7422V5.36914Z" fill="#262626"/>
<path d="M27.4397 24.696C27.2689 24.6321 27.1034 24.5549 26.9447 24.465C26.8047 24.3863 26.6786 24.2849 26.5717 24.165C26.4653 24.0426 26.3838 23.9006 26.3317 23.747C26.2716 23.5583 26.2433 23.361 26.2477 23.163C26.2425 22.9117 26.2909 22.6622 26.3897 22.431C26.4797 22.2252 26.6167 22.0433 26.7897 21.9C26.9738 21.7507 27.186 21.6398 27.4137 21.574C27.6801 21.4987 27.9559 21.462 28.2327 21.465C28.4945 21.4633 28.7558 21.4878 29.0127 21.538C29.2705 21.5912 29.5244 21.6617 29.7727 21.749C29.7379 22.0701 29.6497 22.383 29.5117 22.675L29.2637 22.575C29.1768 22.5415 29.0876 22.5144 28.9967 22.494C28.8904 22.4707 28.7829 22.453 28.6747 22.441C28.5398 22.4273 28.4043 22.4206 28.2687 22.421C28.1751 22.4209 28.0818 22.4293 27.9897 22.446C27.8996 22.4597 27.8128 22.4899 27.7337 22.535C27.6556 22.5807 27.5911 22.6462 27.5467 22.725C27.4941 22.8265 27.469 22.9399 27.4737 23.054C27.4697 23.1418 27.4868 23.2293 27.5235 23.3091C27.5602 23.389 27.6155 23.4589 27.6847 23.513C27.7519 23.5659 27.8259 23.6097 27.9047 23.643C27.9857 23.679 28.0607 23.712 28.1477 23.743L28.6347 23.93C28.8407 24.011 29.0277 24.095 29.1947 24.181C29.355 24.2618 29.4993 24.3709 29.6207 24.503C29.7425 24.6389 29.8354 24.7981 29.8937 24.971C29.9643 25.1876 29.998 25.4143 29.9937 25.642C29.9951 25.9015 29.9419 26.1584 29.8377 26.396C29.7394 26.6218 29.5906 26.8219 29.4027 26.981C29.1967 27.153 28.9588 27.2828 28.7027 27.363C28.3917 27.4595 28.0673 27.5058 27.7417 27.5C27.5819 27.5031 27.422 27.4978 27.2627 27.484C27.1285 27.4732 26.995 27.4555 26.8627 27.431C26.7367 27.406 26.6097 27.375 26.4847 27.337C26.3597 27.299 26.2307 27.253 26.0957 27.198C26.113 27.0327 26.1427 26.8689 26.1847 26.708C26.2287 26.536 26.2847 26.365 26.3407 26.191C26.5483 26.2778 26.7627 26.3474 26.9817 26.399C27.1951 26.443 27.4128 26.4628 27.6307 26.458C27.9101 26.4729 28.1879 26.407 28.4307 26.268C28.5264 26.2057 28.6038 26.119 28.6551 26.0169C28.7064 25.9149 28.7297 25.801 28.7227 25.687C28.7261 25.5747 28.7025 25.4633 28.6537 25.362C28.6089 25.278 28.5485 25.2033 28.4757 25.142C28.4004 25.0791 28.317 25.0267 28.2277 24.986C28.1357 24.945 28.0407 24.906 27.9437 24.869L27.4397 24.696Z" fill="#BABABD"/>
<path d="M31.7042 24.696C31.5355 24.6318 31.372 24.5545 31.2152 24.465C31.0754 24.3859 30.9495 24.2846 30.8422 24.165C30.7356 24.0429 30.6543 23.9008 30.6032 23.747C30.5417 23.5586 30.5126 23.3612 30.5172 23.163C30.512 22.9117 30.5604 22.6622 30.6592 22.431C30.7499 22.2256 30.8868 22.0439 31.0592 21.9C31.2429 21.7502 31.4552 21.6393 31.6832 21.574C31.9502 21.4986 32.2267 21.4619 32.5042 21.465C32.7659 21.4634 33.0272 21.4879 33.2842 21.538C33.5416 21.5912 33.7952 21.6617 34.0432 21.749C34.009 22.07 33.9214 22.3829 33.7842 22.675L33.5362 22.575C33.4489 22.5416 33.3594 22.5145 33.2682 22.494C33.1625 22.4707 33.0557 22.453 32.9482 22.441C32.8129 22.4273 32.6771 22.4206 32.5412 22.421C32.4476 22.421 32.3542 22.4294 32.2622 22.446C32.1722 22.46 32.0854 22.4902 32.0062 22.535C31.9285 22.5812 31.864 22.6466 31.8192 22.725C31.7669 22.8266 31.7421 22.94 31.7472 23.054C31.7441 23.1479 31.7632 23.2411 31.8032 23.326C31.8408 23.3991 31.8941 23.4629 31.9592 23.513C32.0258 23.5663 32.0995 23.6101 32.1782 23.643C32.2592 23.679 32.3342 23.712 32.4212 23.743L32.9102 23.93C33.1102 24.011 33.3022 24.095 33.4702 24.181C33.6299 24.2626 33.7741 24.3716 33.8962 24.503C34.0171 24.6393 34.1096 24.7985 34.1682 24.971C34.2395 25.1874 34.2733 25.4143 34.2682 25.642C34.2695 25.9015 34.2164 26.1584 34.1122 26.396C34.0137 26.6214 33.8653 26.8215 33.6782 26.981C33.4717 27.1524 33.234 27.2822 32.9782 27.363C32.6665 27.4596 32.3414 27.5058 32.0152 27.5C31.8553 27.5031 31.6954 27.4978 31.5362 27.484C31.402 27.4734 31.2685 27.4557 31.1362 27.431C31.0082 27.406 30.8832 27.375 30.7582 27.337C30.6332 27.299 30.5042 27.253 30.3682 27.198C30.3869 27.0329 30.4167 26.8692 30.4572 26.708C30.5012 26.536 30.5572 26.365 30.6132 26.191C30.8209 26.2774 31.0353 26.3469 31.2542 26.399C31.4646 26.4456 31.6796 26.4688 31.8952 26.468C32.1746 26.4831 32.4524 26.4171 32.6952 26.278C32.7909 26.2156 32.8684 26.129 32.9199 26.027C32.9713 25.9249 32.9949 25.8111 32.9882 25.697C32.9923 25.5846 32.9682 25.4729 32.9182 25.372C32.8744 25.2874 32.8139 25.2125 32.7402 25.152C32.6649 25.0891 32.5815 25.0367 32.4922 24.996C32.4002 24.955 32.3062 24.916 32.2082 24.879L31.7042 24.696Z" fill="#BABABD"/>
<path d="M35.1055 21.5637C35.2958 21.5314 35.4885 21.5147 35.6815 21.5137C35.8802 21.5147 36.0785 21.5314 36.2745 21.5637V26.3787H38.3035C38.3202 26.4659 38.3312 26.5541 38.3365 26.6427V27.1377C38.3312 27.2266 38.3202 27.3151 38.3035 27.4027H35.1035L35.1055 21.5637Z" fill="#BABABD"/>
<path d="M40.8916 21.564H44.2046C44.237 21.727 44.2531 21.8928 44.2526 22.059C44.2537 22.2308 44.2376 22.4023 44.2046 22.571H42.0806V23.837H43.7696C43.8009 24.0018 43.817 24.1692 43.8176 24.337C43.8181 24.5088 43.802 24.6802 43.7696 24.849H42.0806V26.391H44.2656C44.299 26.5555 44.3158 26.723 44.3156 26.891C44.3159 27.0629 44.2991 27.2344 44.2656 27.403H40.8916V21.564Z" fill="#BABABD"/>
<path d="M45.2071 21.5637C45.3647 21.5316 45.5252 21.5149 45.6861 21.5137C45.8539 21.5148 46.0213 21.5315 46.1861 21.5637L48.4441 25.2827V21.5637C48.629 21.5315 48.8163 21.5147 49.0041 21.5137C49.1677 21.5136 49.3309 21.5303 49.4911 21.5637V27.4007C49.3368 27.4303 49.1802 27.4463 49.0231 27.4487C48.857 27.4469 48.6914 27.4309 48.5281 27.4007L46.2541 23.6897V27.4007C46.0798 27.4324 45.9032 27.4484 45.7261 27.4487C45.5516 27.4488 45.3775 27.4327 45.2061 27.4007L45.2071 21.5637Z" fill="#BABABD"/>
<path d="M54.4886 26.2977C54.5584 26.4489 54.6163 26.6054 54.6616 26.7657C54.7071 26.9243 54.7405 27.0861 54.7616 27.2497C54.5156 27.3419 54.261 27.4089 54.0016 27.4497C53.7607 27.4832 53.5177 27.4992 53.2746 27.4977C52.8603 27.5061 52.4486 27.4303 52.0646 27.2747C51.7306 27.1351 51.4325 26.9218 51.1926 26.6507C50.951 26.373 50.7698 26.0482 50.6606 25.6967C50.539 25.3084 50.479 24.9035 50.4826 24.4967C50.4792 24.0873 50.542 23.6801 50.6686 23.2907C50.784 22.9381 50.9675 22.6116 51.2086 22.3297C51.4473 22.0562 51.7442 21.8396 52.0776 21.6957C52.4487 21.5385 52.8486 21.4608 53.2516 21.4677C53.4917 21.4668 53.7317 21.4828 53.9696 21.5157C54.2139 21.5542 54.4529 21.6213 54.6816 21.7157C54.6696 21.8755 54.6359 22.033 54.5816 22.1837C54.5269 22.3397 54.4676 22.4957 54.4036 22.6517C54.2406 22.5936 54.0734 22.5478 53.9036 22.5147C53.7319 22.4849 53.5578 22.4712 53.3836 22.4737C53.158 22.4596 52.9322 22.4981 52.7239 22.5861C52.5157 22.674 52.3307 22.8091 52.1836 22.9807C51.8754 23.4198 51.7278 23.9516 51.7656 24.4867C51.7656 25.8074 52.3259 26.4677 53.4466 26.4677C53.6234 26.47 53.8002 26.4563 53.9746 26.4267C54.149 26.3972 54.3209 26.3541 54.4886 26.2977Z" fill="#BABABD"/>
<path d="M55.707 21.5638C55.946 21.5358 56.175 21.5138 56.377 21.4938C56.579 21.4738 56.817 21.4658 57.072 21.4658C57.3679 21.4661 57.6631 21.4932 57.954 21.5468C58.2288 21.5972 58.4927 21.695 58.734 21.8358C58.9654 21.9727 59.1589 22.1652 59.297 22.3958C59.4505 22.6702 59.525 22.9817 59.512 23.2958C59.5156 23.4899 59.4883 23.6833 59.431 23.8688C59.3385 24.1573 59.1736 24.4172 58.952 24.6238C58.8672 24.704 58.7748 24.7756 58.676 24.8378L58.539 24.9288L59.959 27.3968L59.619 27.4298C59.5 27.4408 59.377 27.4468 59.254 27.4468C59.05 27.4467 58.8463 27.43 58.645 27.3968L57.125 24.6858L57.325 24.5858C57.401 24.5488 57.494 24.4998 57.601 24.4388C57.7131 24.3765 57.8178 24.3017 57.913 24.2158C58.0158 24.123 58.1017 24.013 58.167 23.8908C58.2607 23.6954 58.2931 23.4762 58.2599 23.262C58.2267 23.0478 58.1295 22.8487 57.981 22.6908C57.7653 22.5249 57.4979 22.4403 57.226 22.4518C57.1172 22.4509 57.0086 22.4586 56.901 22.4748V27.4038C56.801 27.4128 56.701 27.4238 56.608 27.4318C56.515 27.4398 56.416 27.4438 56.324 27.4438C56.232 27.4438 56.135 27.4438 56.032 27.4348C55.929 27.4258 55.823 27.4188 55.72 27.4038L55.707 21.5638Z" fill="#BABABD"/>
<path d="M61.7809 25.315L59.9609 21.569C60.1868 21.5362 60.4147 21.5194 60.6429 21.519C60.8519 21.5191 61.0606 21.5358 61.2669 21.569L62.421 24.222L63.5569 21.569C63.7606 21.5357 63.9666 21.519 64.1729 21.519C64.3819 21.5205 64.5904 21.5372 64.7969 21.569L62.9789 25.315V27.415C62.8749 27.4304 62.7709 27.4414 62.6669 27.448H62.0859C61.9813 27.4442 61.8771 27.4332 61.774 27.415L61.7809 25.315Z" fill="#BABABD"/>
<path d="M65.4434 21.5388C65.6934 21.5168 65.9434 21.4998 66.1984 21.4858C66.4534 21.4718 66.7104 21.4658 66.9714 21.4658C67.2476 21.4668 67.5232 21.4939 67.7944 21.5468C68.0634 21.5959 68.32 21.6979 68.5494 21.8468C68.7818 22.0055 68.9705 22.2201 69.0984 22.4708C69.2512 22.7927 69.3236 23.1468 69.3094 23.5028C69.3241 23.8573 69.2516 24.2099 69.0984 24.5298C68.9703 24.7792 68.7833 24.9934 68.5534 25.1538C68.3298 25.3078 68.0769 25.414 67.8104 25.4658C67.5444 25.5194 67.2737 25.5465 67.0024 25.5468H66.8024C66.7438 25.5489 66.6852 25.5452 66.6274 25.5358V27.4088C66.528 27.4243 66.4278 27.4346 66.3274 27.4398C66.2274 27.4398 66.1354 27.4488 66.0434 27.4488C65.9514 27.4488 65.8624 27.4488 65.7594 27.4398C65.6564 27.4308 65.5514 27.4238 65.4474 27.4088L65.4434 21.5388ZM66.6294 24.5388C66.6898 24.5495 66.751 24.5552 66.8124 24.5558H67.0204C67.1554 24.5555 67.2899 24.5377 67.4204 24.5028C67.5462 24.4688 67.6636 24.4092 67.7654 24.3278C67.8694 24.241 67.9513 24.1306 68.0044 24.0058C68.068 23.8505 68.0983 23.6836 68.0934 23.5158C68.0983 23.3419 68.068 23.1688 68.0044 23.0068C67.9542 22.8818 67.8751 22.7704 67.7736 22.6817C67.6721 22.5931 67.5511 22.5297 67.4204 22.4968C67.29 22.4612 67.1555 22.4434 67.0204 22.4438H66.8534L66.6304 22.4638L66.6294 24.5388Z" fill="#BABABD"/>
<path d="M71.3135 22.571H69.8605C69.8269 22.4024 69.8101 22.2309 69.8106 22.059C69.8107 21.8927 69.8275 21.7269 69.8605 21.564H73.9605C73.993 21.727 74.009 21.8928 74.0086 22.059C74.0096 22.2308 73.9936 22.4023 73.9605 22.571H72.5075V27.409C72.4075 27.418 72.3075 27.429 72.2145 27.437C72.1215 27.445 72.0225 27.449 71.9305 27.449C71.8385 27.449 71.7405 27.449 71.6305 27.44C71.5205 27.431 71.4186 27.424 71.3106 27.409L71.3135 22.571Z" fill="#BABABD"/>
<path d="M74.7813 21.5637C74.9773 21.531 75.1756 21.5143 75.3743 21.5137C75.5753 21.5145 75.7759 21.5312 75.9743 21.5637V27.4007C75.5789 27.4652 75.1757 27.4652 74.7803 27.4007L74.7813 21.5637Z" fill="#BABABD"/>
<path d="M79.491 27.499C79.1001 27.5086 78.712 27.4307 78.355 27.271C78.0489 27.1283 77.7815 26.9143 77.575 26.647C77.3614 26.363 77.2055 26.04 77.116 25.696C77.0105 25.3048 76.9581 24.9012 76.96 24.496C76.9587 24.0889 77.0112 23.6834 77.116 23.29C77.2049 22.9428 77.3608 22.6164 77.575 22.329C77.7798 22.0577 78.0475 21.8401 78.355 21.695C78.7149 21.5447 79.101 21.4673 79.491 21.4673C79.881 21.4673 80.2671 21.5447 80.627 21.695C80.9345 21.8401 81.2022 22.0577 81.407 22.329C81.6212 22.6163 81.7772 22.9428 81.866 23.29C81.9708 23.6834 82.0233 24.0889 82.022 24.496C82.0239 24.9012 81.9715 25.3048 81.866 25.696C81.7766 26.04 81.6206 26.363 81.407 26.647C81.2006 26.9144 80.9331 27.1283 80.627 27.271C80.27 27.4307 79.8819 27.5086 79.491 27.499ZM79.491 26.508C80.331 26.508 80.7503 25.837 80.749 24.495C80.7825 23.9725 80.6747 23.4506 80.437 22.984C80.3405 22.8218 80.2011 22.6893 80.0343 22.6011C79.8674 22.5129 79.6794 22.4724 79.491 22.484C78.6417 22.484 78.2167 23.155 78.216 24.497C78.2154 25.839 78.6404 26.5094 79.491 26.508Z" fill="#BABABD"/>
<path d="M83.0069 21.5637C83.1646 21.5316 83.3249 21.5149 83.4858 21.5137C83.6537 21.5148 83.8211 21.5315 83.9858 21.5637L86.2439 25.2827V21.5637C86.4288 21.5315 86.6162 21.5147 86.8039 21.5137C86.9675 21.5136 87.1307 21.5303 87.2909 21.5637V27.4007C87.1366 27.4303 86.98 27.4463 86.8229 27.4487C86.6568 27.4469 86.4912 27.4309 86.3279 27.4007L84.0539 23.6897V27.4007C83.8797 27.4324 83.703 27.4484 83.5259 27.4487C83.3514 27.4488 83.1773 27.4327 83.0059 27.4007L83.0069 21.5637Z" fill="#BABABD"/>
</svg>
