<svg width="48" height="49" viewBox="0 0 48 49" fill="none" xmlns="http://www.w3.org/2000/svg">
<rect y="0.5" width="48" height="48" rx="24" fill="#01928F"/>
<path d="M34 29.4201V32.4201C34.0011 32.6986 33.9441 32.9743 33.8325 33.2294C33.7209 33.4846 33.5573 33.7137 33.3521 33.902C33.1469 34.0902 32.9046 34.2336 32.6407 34.3228C32.3769 34.412 32.0974 34.4452 31.82 34.4201C28.7428 34.0857 25.787 33.0342 23.19 31.3501C20.7738 29.8148 18.7253 27.7663 17.19 25.3501C15.5 22.7413 14.4482 19.7711 14.12 16.6801C14.095 16.4036 14.1279 16.1249 14.2165 15.8617C14.3051 15.5986 14.4476 15.3568 14.6348 15.1517C14.822 14.9466 15.0498 14.7828 15.3038 14.6706C15.5578 14.5584 15.8323 14.5004 16.11 14.5001H19.11C19.5953 14.4953 20.0658 14.6672 20.4338 14.9836C20.8017 15.3001 21.0421 15.7395 21.11 16.2201C21.2366 17.1802 21.4714 18.1228 21.81 19.0301C21.9445 19.388 21.9737 19.777 21.8939 20.151C21.8142 20.5249 21.6289 20.8682 21.36 21.1401L20.09 22.4101C21.5136 24.9136 23.5865 26.9865 26.09 28.4101L27.36 27.1401C27.6319 26.8712 27.9752 26.6859 28.3491 26.6062C28.7231 26.5264 29.1121 26.5556 29.47 26.6901C30.3773 27.0286 31.3199 27.2635 32.28 27.3901C32.7658 27.4586 33.2094 27.7033 33.5265 28.0776C33.8437 28.4519 34.0122 28.9297 34 29.4201Z" stroke="white" stroke-width="2" stroke-linecap="round" stroke-linejoin="round"/>
</svg>
