<svg width="31" height="30" viewBox="0 0 31 30" fill="none" xmlns="http://www.w3.org/2000/svg">
<g clip-path="url(#clip0_125_596)">
<path d="M20.25 5.00049H25.25C26.5761 5.00049 27.8479 5.52727 28.7855 6.46495C29.7232 7.40264 30.25 8.67441 30.25 10.0005V15.0005C30.25 15.6635 29.9866 16.2994 29.5178 16.7683C29.0489 17.2371 28.413 17.5005 27.75 17.5005H20.3625C20.6591 19.2462 21.5632 20.8308 22.915 21.9745C24.2668 23.1182 25.9793 23.7472 27.75 23.7505C28.0815 23.7505 28.3995 23.8822 28.6339 24.1166C28.8683 24.351 29 24.669 29 25.0005C29 25.332 28.8683 25.65 28.6339 25.8844C28.3995 26.1188 28.0815 26.2505 27.75 26.2505C25.0987 26.2475 22.5569 25.193 20.6822 23.3183C18.8075 21.4435 17.753 18.9017 17.75 16.2505V7.50049C17.75 6.83745 18.0134 6.20156 18.4822 5.73272C18.9511 5.26388 19.587 5.00049 20.25 5.00049Z" fill="#EE3342"/>
<path d="M2.75015 5.00049H7.75014C9.07621 5.00049 10.348 5.52727 11.2857 6.46495C12.2233 7.40264 12.7501 8.67441 12.7501 10.0005V15.0005C12.7501 15.6635 12.4867 16.2994 12.0179 16.7683C11.5491 17.2371 10.9132 17.5005 10.2501 17.5005H2.86265C3.15924 19.2462 4.0633 20.8308 5.4151 21.9745C6.76691 23.1182 8.47944 23.7472 10.2501 23.7505C10.5816 23.7505 10.8996 23.8822 11.134 24.1166C11.3684 24.351 11.5001 24.669 11.5001 25.0005C11.5001 25.332 11.3684 25.65 11.134 25.8844C10.8996 26.1188 10.5816 26.2505 10.2501 26.2505C7.59889 26.2475 5.05708 25.193 3.18237 23.3183C1.30766 21.4435 0.253135 18.9017 0.250156 16.2505V7.50049C0.250156 6.83745 0.513549 6.20156 0.982388 5.73272C1.45123 5.26388 2.08711 5.00049 2.75015 5.00049Z" fill="#EE3342"/>
</g>
<defs>
<clipPath id="clip0_125_596">
<rect width="30" height="30" fill="white" transform="matrix(-1 0 0 1 30.25 0)"/>
</clipPath>
</defs>
</svg>
