<svg xmlns="http://www.w3.org/2000/svg" width="11.071" height="15.5" viewBox="0 0 11.071 15.5">
  <g id="Page-1" transform="translate(-6.75 -2.75)">
    <g id="icon-86-document-list" transform="translate(7 3)">
      <path id="document-list" d="M13.955,3H8.114A1.115,1.115,0,0,0,7,4.115v12.77A1.112,1.112,0,0,0,8.111,18H16.46a1.111,1.111,0,0,0,1.111-1.106V6.889L14.233,3Zm-.278.556H8.11a.557.557,0,0,0-.554.553V16.891a.557.557,0,0,0,.556.553h8.346a.554.554,0,0,0,.556-.552V7.444H14.788A1.109,1.109,0,0,1,13.677,6.33V3.556Zm.556.278v2.5a.559.559,0,0,0,.555.56h2.06L14.233,3.833ZM11.451,9.111v.556H15.9V9.111ZM8.669,8.556v1.667h1.669V8.556Zm.556.556v.556h.556V9.111Zm-.556,2.222V13h1.669V11.333Zm.556.556v.556h.556v-.556Zm2.226,0v.556H15.9v-.556ZM8.669,14.111v1.667h1.669V14.111Zm.556.556v.556h.556v-.556Zm2.226,0v.556H15.9v-.556Z" transform="translate(-7 -3)" fill="#01928f" stroke="#01928f" stroke-width="0.5" fill-rule="evenodd"/>
    </g>
  </g>
</svg>
