<svg width="184" height="184" viewBox="0 0 184 184" fill="none" xmlns="http://www.w3.org/2000/svg">
<g filter="url(#filter0_b_141_5437)">
<rect x="17.4054" y="17.4054" width="149.189" height="149.189" rx="74.5946" fill="#FF9900" fill-opacity="0.42"/>
<g clip-path="url(#clip0_141_5437)">
<path d="M92 33.96V151.34" stroke="white" stroke-width="0.75" stroke-miterlimit="10"/>
<path d="M150.69 92.65H33.31" stroke="white" stroke-width="0.75" stroke-miterlimit="10"/>
<path d="M92 134.36C115.036 134.36 133.71 115.686 133.71 92.65C133.71 69.6142 115.036 50.94 92 50.94C68.9642 50.94 50.29 69.6142 50.29 92.65C50.29 115.686 68.9642 134.36 92 134.36Z" stroke="white" stroke-width="0.75" stroke-miterlimit="10"/>
<path d="M112.08 124.81L123.46 120.23L118.14 131.37" stroke="white" stroke-width="0.75" stroke-miterlimit="10"/>
<path d="M116.24 54.13L115.54 49.74L119.05 52.52" stroke="white" stroke-width="0.75" stroke-miterlimit="10"/>
<path d="M128.75 72.9L116.19 50.94" stroke="white" stroke-width="0.75" stroke-miterlimit="10"/>
<path d="M92 92.65L128.33 72.17" stroke="white" stroke-width="0.75" stroke-miterlimit="10"/>
<path d="M128.33 72.17V92.65" stroke="white" stroke-width="0.75" stroke-miterlimit="10"/>
<path d="M128.33 72.17H92" stroke="white" stroke-width="0.75" stroke-miterlimit="10"/>
<path d="M98.6866 46.5931C98.4991 46.3509 98.3858 46.0658 98.3467 45.7377C98.3077 45.4173 98.3155 45.0775 98.3702 44.7181C98.4327 44.3588 98.5303 43.9955 98.6631 43.6283C98.8038 43.2533 98.9561 42.8978 99.1202 42.5619C99.2842 42.2181 99.4561 41.9056 99.6358 41.6244C99.8155 41.3353 99.9756 41.097 100.116 40.9095C100.452 40.4642 100.726 40.0814 100.937 39.7611C101.148 39.4408 101.288 39.1244 101.358 38.8119C101.437 38.4916 101.44 38.1517 101.37 37.7923C101.308 37.4252 101.163 36.972 100.937 36.433C100.687 37.4955 100.378 38.4213 100.011 39.2103C99.6436 39.9994 99.2686 40.6244 98.8858 41.0853C98.5108 41.5463 98.1475 41.8275 97.796 41.9291C97.4522 42.0306 97.171 41.9291 96.9522 41.6244C96.7413 41.3119 96.6163 40.7806 96.5772 40.0306C96.5381 39.2806 96.6358 38.2806 96.8702 37.0306C96.9092 36.9056 96.9952 36.8353 97.128 36.8197C97.2608 36.7963 97.378 36.8002 97.4796 36.8314V40.6986C97.4796 41.0345 97.5264 41.2416 97.6202 41.3197C97.7217 41.39 97.8428 41.3822 97.9835 41.2963C98.1319 41.2025 98.2881 41.0541 98.4522 40.8509C98.6241 40.6478 98.7842 40.4369 98.9327 40.2181C99.0889 39.9994 99.2178 39.8002 99.3194 39.6205C99.4288 39.4408 99.4913 39.3236 99.5069 39.2689C99.546 39.1595 99.5967 38.9916 99.6592 38.765C99.7296 38.5306 99.8038 38.2689 99.8819 37.9798C99.9678 37.683 100.054 37.3744 100.14 37.0541C100.233 36.7259 100.319 36.4134 100.398 36.1166C100.476 35.8197 100.542 35.5541 100.597 35.3197C100.659 35.0853 100.706 34.9095 100.737 34.7923C100.761 34.7377 100.8 34.6908 100.855 34.6517C100.917 34.6127 100.98 34.5892 101.042 34.5814C101.112 34.5736 101.175 34.5853 101.23 34.6166C101.284 34.6478 101.323 34.7064 101.347 34.7923L102.155 38.6595C102.171 38.7142 102.23 38.7259 102.331 38.6947C102.44 38.6634 102.573 38.6088 102.73 38.5306C102.886 38.4447 103.054 38.347 103.233 38.2377C103.413 38.1283 103.581 38.0189 103.737 37.9095C103.901 37.8002 104.042 37.7025 104.159 37.6166C104.284 37.5306 104.362 37.472 104.394 37.4408C104.644 37.4798 104.773 37.5541 104.78 37.6634C104.788 37.765 104.726 37.89 104.593 38.0384C104.46 38.1869 104.276 38.347 104.042 38.5189C103.808 38.683 103.573 38.8431 103.339 38.9994C103.112 39.1478 102.905 39.2845 102.718 39.4095C102.53 39.5345 102.413 39.6244 102.366 39.6791C102.366 39.7572 102.362 39.8744 102.355 40.0306C102.347 40.1869 102.335 40.3666 102.319 40.5697C102.312 40.7728 102.3 40.9838 102.284 41.2025C102.269 41.4213 102.253 41.6322 102.237 41.8353C102.222 42.0384 102.206 42.2181 102.19 42.3744L102.155 42.7259C102.14 42.8275 102.101 42.9916 102.038 43.2181C101.983 43.4447 101.905 43.6986 101.804 43.9798C101.702 44.2689 101.581 44.5697 101.44 44.8822C101.308 45.2025 101.159 45.5033 100.995 45.7845C100.839 46.0658 100.667 46.3158 100.48 46.5345C100.3 46.7611 100.108 46.9213 99.9053 47.015C99.71 47.1166 99.5069 47.14 99.296 47.0853C99.0928 47.0306 98.8897 46.8666 98.6866 46.5931ZM99.3077 46.183C99.4249 46.3548 99.5538 46.4173 99.6944 46.3705C99.835 46.3236 99.9796 46.2103 100.128 46.0306C100.276 45.8509 100.421 45.6283 100.562 45.3627C100.702 45.1048 100.827 44.847 100.937 44.5892C101.054 44.3392 101.148 44.1127 101.218 43.9095C101.288 43.7142 101.331 43.5931 101.347 43.5463C101.456 43.0228 101.523 42.4798 101.546 41.9173C101.577 41.3548 101.577 40.8119 101.546 40.2884C101.327 40.4759 101.093 40.7142 100.843 41.0033C100.593 41.2845 100.351 41.597 100.116 41.9408C99.8897 42.2767 99.6827 42.6322 99.4952 43.0072C99.3077 43.3822 99.1671 43.7533 99.0733 44.1205C98.9796 44.4955 98.9444 44.8588 98.9678 45.2103C98.9991 45.5619 99.1124 45.8861 99.3077 46.183Z" fill="white"/>
<path d="M146.13 94.0408C146.067 93.7127 146.087 93.3845 146.188 93.0564C146.29 92.7205 146.399 92.3884 146.516 92.0603C146.641 91.7244 146.739 91.4002 146.809 91.0877C146.888 90.7673 146.864 90.4627 146.739 90.1736C146.591 89.8298 146.403 89.4978 146.177 89.1775C145.95 88.8494 145.739 88.5173 145.544 88.1814C145.356 87.8377 145.212 87.4822 145.11 87.115C145.009 86.74 145.009 86.3338 145.11 85.8963C145.446 85.8259 145.7 85.8455 145.872 85.9548C146.044 86.0564 146.169 86.2127 146.247 86.4236C146.325 86.6267 146.372 86.8689 146.388 87.1502C146.411 87.4236 146.442 87.7009 146.481 87.9822C146.52 88.2556 146.583 88.5173 146.669 88.7673C146.763 89.0095 146.919 89.2048 147.138 89.3533C147.161 89.3455 147.196 89.3181 147.243 89.2713C147.298 89.2166 147.329 89.1775 147.337 89.1541C147.54 88.8338 147.712 88.5525 147.852 88.3103C147.993 88.0681 148.122 87.8494 148.239 87.6541C148.356 87.4509 148.47 87.2634 148.579 87.0916C148.688 86.9197 148.813 86.7439 148.954 86.5642C149.102 86.3845 149.274 86.1931 149.47 85.99C149.665 85.7869 149.907 85.5525 150.196 85.2869C150.602 84.9119 150.977 84.7048 151.321 84.6658C151.665 84.6267 151.954 84.7048 152.188 84.9002C152.43 85.0877 152.61 85.365 152.727 85.7322C152.845 86.0994 152.884 86.5056 152.845 86.9509C152.805 87.3884 152.677 87.8377 152.458 88.2986C152.247 88.7595 151.927 89.1775 151.497 89.5525C151.075 89.9197 150.54 90.2205 149.891 90.4548C149.243 90.6892 148.462 90.7986 147.548 90.783C147.423 91.0095 147.313 91.2634 147.22 91.5447C147.134 91.8259 147.055 92.115 146.985 92.4119C146.923 92.7009 146.872 92.99 146.833 93.2791C146.794 93.5603 146.763 93.8142 146.739 94.0408C146.716 94.0955 146.673 94.1423 146.61 94.1814C146.548 94.2205 146.485 94.2439 146.423 94.2517C146.36 94.2673 146.298 94.2595 146.235 94.2283C146.18 94.197 146.145 94.1345 146.13 94.0408ZM147.958 89.7634C147.942 89.7791 147.934 89.8142 147.934 89.8689C147.934 89.9158 147.942 89.947 147.958 89.9627C148.645 90.072 149.243 90.0642 149.751 89.9392C150.259 89.8142 150.684 89.6228 151.028 89.365C151.38 89.0994 151.653 88.7908 151.848 88.4392C152.044 88.0877 152.173 87.7361 152.235 87.3845C152.305 87.033 152.309 86.7048 152.247 86.4002C152.184 86.0877 152.071 85.8494 151.907 85.6853C151.743 85.5213 151.532 85.447 151.274 85.4627C151.016 85.4783 150.716 85.6345 150.372 85.9314C150.036 86.2205 149.665 86.6736 149.259 87.2908C148.852 87.908 148.419 88.7322 147.958 89.7634Z" fill="white"/>
<path d="M132.58 75.5606C132.486 75.3809 132.428 75.1348 132.404 74.8223C132.381 74.502 132.385 74.1466 132.416 73.7559C132.455 73.3653 132.518 72.9591 132.604 72.5372C132.697 72.1153 132.811 71.713 132.943 71.3302C133.084 70.9473 133.24 70.5997 133.412 70.2872C133.592 69.9669 133.787 69.7208 133.998 69.5489C134.209 69.3692 134.436 69.2833 134.678 69.2911C134.92 69.2911 135.17 69.4161 135.428 69.6661L135.826 66.3966C135.834 66.3653 135.865 66.3263 135.92 66.2794C135.975 66.2247 136.014 66.1973 136.037 66.1973C136.068 66.1973 136.107 66.2052 136.154 66.2208C136.201 66.2364 136.244 66.2559 136.283 66.2794C136.33 66.295 136.369 66.3145 136.4 66.338C136.432 66.3614 136.447 66.3809 136.447 66.3966V72.1036C136.447 72.5333 136.522 72.9044 136.67 73.2169C136.818 73.5294 137.014 73.7598 137.256 73.9083C137.498 74.0567 137.775 74.1075 138.088 74.0606C138.408 74.0059 138.74 73.8302 139.084 73.5333C139.193 73.5333 139.244 73.5841 139.236 73.6856C139.229 73.7794 139.182 73.8927 139.096 74.0255C139.018 74.1583 138.9 74.295 138.744 74.4356C138.596 74.5763 138.428 74.6934 138.24 74.7872C138.061 74.8731 137.865 74.92 137.654 74.9278C137.451 74.9356 137.252 74.8731 137.057 74.7403C136.9 74.6388 136.76 74.5177 136.635 74.377C136.51 74.2364 136.397 74.0841 136.295 73.92C136.201 73.7559 136.111 73.588 136.025 73.4161C135.947 73.2442 135.881 73.0763 135.826 72.9122C135.795 72.9825 135.74 73.088 135.662 73.2286C135.592 73.3614 135.51 73.5177 135.416 73.6973C135.322 73.8692 135.225 74.0528 135.123 74.2481C135.022 74.4356 134.924 74.6192 134.83 74.7989C134.736 74.9708 134.65 75.127 134.572 75.2677C134.494 75.4005 134.436 75.4981 134.397 75.5606C134.287 75.7638 134.15 75.9161 133.986 76.0177C133.822 76.1192 133.65 76.17 133.471 76.17C133.299 76.17 133.131 76.1192 132.967 76.0177C132.811 75.9161 132.682 75.7638 132.58 75.5606ZM133.19 75.1505C133.197 75.1739 133.217 75.2052 133.248 75.2442C133.279 75.2755 133.315 75.3067 133.354 75.338C133.393 75.3614 133.432 75.377 133.471 75.3848C133.518 75.3927 133.561 75.3809 133.6 75.3497C133.982 75.0606 134.291 74.7169 134.525 74.3184C134.768 73.92 134.963 73.4981 135.111 73.0528C135.26 72.6075 135.377 72.1544 135.463 71.6934C135.549 71.2247 135.631 70.7794 135.709 70.3575C135.287 70.3028 134.924 70.338 134.619 70.463C134.322 70.5802 134.072 70.7598 133.869 71.002C133.666 71.2442 133.506 71.5333 133.389 71.8692C133.272 72.2052 133.19 72.5606 133.143 72.9356C133.096 73.3028 133.076 73.6817 133.084 74.0723C133.1 74.4552 133.135 74.8145 133.19 75.1505ZM139.295 75.9708C139.123 75.8614 138.994 75.6934 138.908 75.4669C138.83 75.2325 138.772 74.9903 138.732 74.7403C138.701 74.4825 138.686 74.2442 138.686 74.0255V73.5333C138.686 73.4473 138.69 73.2755 138.697 73.0177C138.705 72.752 138.717 72.4473 138.732 72.1036C138.748 71.752 138.764 71.3809 138.779 70.9903C138.795 70.5919 138.811 70.2208 138.826 69.877C138.842 69.5255 138.854 69.2208 138.861 68.963C138.877 68.7052 138.885 68.5333 138.885 68.4473C138.885 68.3302 138.885 68.127 138.885 67.838C138.893 67.5489 138.897 67.2442 138.897 66.9239C138.897 66.5958 138.893 66.2872 138.885 65.9981C138.885 65.7091 138.885 65.5059 138.885 65.3888C139.002 65.3028 139.104 65.2442 139.19 65.213C139.268 65.1817 139.338 65.1778 139.4 65.2013C139.463 65.2169 139.494 65.2794 139.494 65.3888V74.9513C139.494 75.0059 139.51 75.0723 139.541 75.1505C139.58 75.2208 139.627 75.2833 139.682 75.338C139.736 75.3927 139.799 75.4278 139.869 75.4434C139.947 75.4513 140.025 75.42 140.104 75.3497L141.522 74.1427C141.561 74.3223 141.557 74.5098 141.51 74.7052C141.463 74.9005 141.385 75.0841 141.275 75.2559C141.174 75.4278 141.045 75.5841 140.889 75.7247C140.732 75.8653 140.565 75.9747 140.385 76.0528C140.205 76.1231 140.022 76.1583 139.834 76.1583C139.647 76.1505 139.467 76.088 139.295 75.9708Z" fill="white"/>
<path d="M121.769 55.3306C121.754 55.2994 121.734 55.2486 121.711 55.1783C121.687 55.1002 121.664 55.0181 121.64 54.9322C121.625 54.8384 121.609 54.7525 121.594 54.6744C121.578 54.5963 121.57 54.5416 121.57 54.5103V50.0338C121.57 49.9634 121.597 49.9127 121.652 49.8814C121.707 49.8502 121.769 49.8306 121.84 49.8228C121.91 49.815 121.976 49.815 122.039 49.8228C122.109 49.8306 122.156 49.8384 122.18 49.8463C122.172 49.9478 122.168 50.1041 122.168 50.315C122.168 50.5259 122.164 50.7642 122.156 51.0298C122.156 51.2955 122.156 51.5767 122.156 51.8736C122.164 52.1705 122.168 52.4556 122.168 52.7291V53.4439C122.168 53.6548 122.172 53.8111 122.18 53.9127C122.195 54.3502 122.254 54.6548 122.355 54.8267C122.465 54.9986 122.594 55.0806 122.742 55.0728C122.898 55.0572 123.058 54.9713 123.222 54.815C123.394 54.6509 123.551 54.4595 123.691 54.2408C123.84 54.0142 123.961 53.7798 124.055 53.5377C124.156 53.2955 124.207 53.0806 124.207 52.8931V49.8463H125.027C125.012 50.0259 124.992 50.2603 124.969 50.5494C124.945 50.8384 124.93 51.1509 124.922 51.4869C124.922 51.8228 124.93 52.1666 124.945 52.5181C124.961 52.8619 124.996 53.19 125.051 53.5025C125.113 53.8072 125.199 54.0767 125.308 54.3111C125.418 54.5377 125.558 54.7017 125.73 54.8033C125.91 54.897 126.125 54.9127 126.375 54.8502C126.625 54.7798 126.922 54.6002 127.265 54.3111C127.336 54.5142 127.308 54.7095 127.183 54.897C127.058 55.0845 126.894 55.2486 126.691 55.3892C126.488 55.5298 126.269 55.6353 126.035 55.7056C125.801 55.7681 125.601 55.7798 125.437 55.7408C125.414 55.733 125.375 55.7017 125.32 55.647C125.273 55.5923 125.242 55.5533 125.226 55.5298C125.195 55.4752 125.14 55.3736 125.062 55.2252C124.984 55.0689 124.902 54.9048 124.816 54.733C124.73 54.5611 124.648 54.397 124.57 54.2408C124.5 54.0845 124.449 53.9752 124.418 53.9127C124.371 53.9986 124.293 54.1314 124.183 54.3111C124.074 54.483 123.941 54.6705 123.785 54.8736C123.637 55.0689 123.472 55.2564 123.293 55.4361C123.121 55.608 122.945 55.733 122.765 55.8111C122.586 55.8814 122.41 55.8892 122.238 55.8345C122.066 55.772 121.91 55.6041 121.769 55.3306ZM129.773 55.1197C129.601 54.8306 129.469 54.5064 129.375 54.147C129.281 53.7798 129.215 53.4048 129.176 53.022C129.137 52.6392 129.117 52.2603 129.117 51.8853C129.125 51.5103 129.137 51.1666 129.152 50.8541C129.043 50.8228 128.918 50.8306 128.777 50.8775C128.637 50.9244 128.488 50.9869 128.332 51.065C128.176 51.1353 128.015 51.2134 127.851 51.2994C127.687 51.3853 127.535 51.4478 127.394 51.4869C127.254 51.5259 127.125 51.5338 127.008 51.5103C126.89 51.4869 126.797 51.4048 126.726 51.2642C126.656 51.1314 126.66 51.0259 126.738 50.9478C126.824 50.8697 126.945 50.8111 127.101 50.772C127.265 50.7252 127.453 50.6939 127.664 50.6783C127.875 50.6548 128.074 50.6275 128.262 50.5963C128.449 50.565 128.609 50.5259 128.742 50.4791C128.875 50.4244 128.945 50.3463 128.953 50.2447L129.363 45.7798C129.371 45.7095 129.406 45.6548 129.469 45.6158C129.539 45.5767 129.609 45.5572 129.68 45.5572C129.758 45.5572 129.824 45.5767 129.879 45.6158C129.941 45.647 129.972 45.7017 129.972 45.7798V49.6353C130.082 49.6588 130.187 49.6588 130.289 49.6353C130.39 49.6041 130.492 49.5689 130.594 49.5298C130.695 49.4908 130.793 49.4595 130.887 49.4361C130.988 49.4127 131.094 49.4127 131.203 49.4361C131.25 49.522 131.242 49.6041 131.18 49.6822C131.117 49.7525 131.055 49.8072 130.992 49.8463L130.781 49.9752C130.687 50.0298 130.586 50.0923 130.476 50.1627C130.375 50.2252 130.273 50.2838 130.172 50.3384C130.078 50.3931 130.012 50.4283 129.972 50.4439C129.965 50.5533 129.957 50.7447 129.949 51.0181C129.949 51.2838 129.949 51.5689 129.949 51.8736C129.949 52.1783 129.949 52.4673 129.949 52.7408C129.957 53.0064 129.965 53.1939 129.972 53.3033C130.004 53.6705 130.074 54.0064 130.183 54.3111C130.293 54.6158 130.441 54.8541 130.629 55.0259C130.816 55.1978 131.039 55.2838 131.297 55.2838C131.562 55.2838 131.871 55.1627 132.222 54.9205C132.277 55.1002 132.273 55.2603 132.211 55.4009C132.148 55.5416 132.047 55.6548 131.906 55.7408C131.765 55.8189 131.597 55.8697 131.402 55.8931C131.207 55.9166 131.008 55.9048 130.805 55.858C130.609 55.8111 130.418 55.7291 130.23 55.6119C130.043 55.4869 129.89 55.3228 129.773 55.1197Z" fill="white"/>
<path d="M102.024 86.2108C101.868 85.8827 101.782 85.5506 101.766 85.2147C101.758 84.8788 101.778 84.535 101.825 84.1834C101.833 84.0741 101.852 83.91 101.883 83.6913C101.915 83.4725 101.95 83.2303 101.989 82.9647C102.028 82.6991 102.071 82.4178 102.118 82.1209C102.165 81.8241 102.208 81.5428 102.247 81.2772C102.286 81.0116 102.321 80.7772 102.352 80.5741C102.391 80.3631 102.418 80.2069 102.434 80.1053C102.497 79.7772 102.563 79.4998 102.633 79.2733C102.711 79.0389 102.813 78.8592 102.938 78.7342C103.071 78.6092 103.239 78.5428 103.442 78.535C103.653 78.5272 103.922 78.578 104.25 78.6873C104.29 78.6952 104.333 78.7264 104.379 78.7811C104.426 78.828 104.454 78.8631 104.461 78.8866C104.477 78.9881 104.504 79.1444 104.543 79.3553C104.59 79.5663 104.641 79.8084 104.696 80.0819C104.75 80.3475 104.805 80.6288 104.86 80.9256C104.922 81.2147 104.981 81.4959 105.036 81.7694C105.09 82.035 105.137 82.2733 105.176 82.4842C105.223 82.6952 105.258 82.8514 105.282 82.953C105.399 83.5077 105.543 83.8944 105.715 84.1131C105.887 84.3241 106.071 84.4334 106.266 84.4413C106.461 84.4491 106.661 84.3866 106.864 84.2538C107.075 84.1131 107.282 83.9686 107.485 83.8202C107.688 83.6639 107.879 83.5311 108.059 83.4217C108.239 83.3123 108.395 83.2928 108.528 83.3631C108.528 83.5116 108.493 83.6561 108.422 83.7967C108.352 83.9373 108.266 84.0702 108.165 84.1952C108.071 84.3123 107.965 84.4217 107.848 84.5233C107.731 84.6248 107.622 84.7108 107.52 84.7811C107.083 85.0702 106.715 85.2225 106.418 85.2381C106.129 85.2538 105.883 85.1873 105.68 85.0389C105.477 84.8905 105.313 84.6873 105.188 84.4295C105.063 84.1717 104.95 83.91 104.848 83.6444C104.754 83.3788 104.661 83.1444 104.567 82.9413C104.481 82.7303 104.375 82.5975 104.25 82.5428C104.227 82.6444 104.176 82.8202 104.098 83.0702C104.028 83.3202 103.95 83.5858 103.864 83.867C103.778 84.1483 103.696 84.4139 103.618 84.6639C103.54 84.9139 103.485 85.0897 103.454 85.1913C103.438 85.2303 103.403 85.3045 103.348 85.4139C103.301 85.5233 103.239 85.6444 103.161 85.7772C103.083 85.9022 102.993 86.0272 102.891 86.1522C102.797 86.2694 102.7 86.3592 102.598 86.4217C102.497 86.492 102.395 86.5155 102.293 86.492C102.192 86.4686 102.102 86.3748 102.024 86.2108ZM102.633 82.7538C102.618 82.8475 102.606 83.0194 102.598 83.2694C102.598 83.5194 102.598 83.785 102.598 84.0663C102.598 84.3475 102.598 84.6131 102.598 84.8631C102.606 85.1131 102.618 85.2889 102.633 85.3905C102.907 84.9764 103.153 84.4959 103.372 83.9491C103.59 83.3944 103.754 82.8241 103.864 82.2381C103.981 81.6444 104.028 81.0584 104.004 80.4803C103.981 79.8944 103.864 79.3631 103.653 78.8866C103.52 79.1288 103.395 79.4334 103.278 79.8006C103.161 80.1678 103.059 80.5428 102.973 80.9256C102.887 81.3006 102.813 81.6561 102.75 81.992C102.696 82.3202 102.657 82.5741 102.633 82.7538Z" fill="white"/>
<path d="M115.54 89.41C116.744 89.41 117.72 88.434 117.72 87.23C117.72 86.026 116.744 85.05 115.54 85.05C114.336 85.05 113.36 86.026 113.36 87.23C113.36 88.434 114.336 89.41 115.54 89.41Z" stroke="white" stroke-width="0.5" stroke-miterlimit="10"/>
<path d="M115.54 83.9V90.56" stroke="white" stroke-width="0.5" stroke-miterlimit="10"/>
</g>
</g>
<rect x="0.248649" y="0.248649" width="183.503" height="183.503" rx="91.7514" stroke="#FFA235" stroke-width="0.497297"/>
<defs>
<filter id="filter0_b_141_5437" x="0.497288" y="0.497297" width="183.005" height="183.005" filterUnits="userSpaceOnUse" color-interpolation-filters="sRGB">
<feFlood flood-opacity="0" result="BackgroundImageFix"/>
<feGaussianBlur in="BackgroundImage" stdDeviation="8.45405"/>
<feComposite in2="SourceAlpha" operator="in" result="effect1_backgroundBlur_141_5437"/>
<feBlend mode="normal" in="SourceGraphic" in2="effect1_backgroundBlur_141_5437" result="shape"/>
</filter>
<clipPath id="clip0_141_5437">
<rect width="117.38" height="118.68" fill="white" transform="translate(33.31 32.66)"/>
</clipPath>
</defs>
</svg>
