<svg width="32" height="32" viewBox="0 0 32 32" fill="none" xmlns="http://www.w3.org/2000/svg">
<path d="M15 11.1116C13.9097 10.5808 12.7126 10.3058 11.5 10.3076C10.245 10.3076 9.057 10.5976 8 11.1116V21.1116C9.0903 20.5808 10.2874 20.3058 11.5 20.3076C13.169 20.3076 14.718 20.8176 16 21.6926C17.3261 20.7879 18.8947 20.3051 20.5 20.3076C21.755 20.3076 22.943 20.5976 24 21.1116V11.1116C22.9097 10.5808 21.7126 10.3058 20.5 10.3076C19.245 10.3076 18.057 10.5976 17 11.1116V18.3076C17 18.5728 16.8946 18.8272 16.7071 19.0147C16.5196 19.2023 16.2652 19.3076 16 19.3076C15.7348 19.3076 15.4804 19.2023 15.2929 19.0147C15.1054 18.8272 15 18.5728 15 18.3076V11.1116Z" fill="#01928F"/>
<rect x="1" y="1" width="30" height="30" rx="15" stroke="#01928F" stroke-width="2"/>
</svg>
