<svg width="133" height="83" viewBox="0 0 133 83" fill="none" xmlns="http://www.w3.org/2000/svg">
<g clip-path="url(#clip0_141_5543)">
<path d="M3.27002 0.5V78.99H132" stroke="#676B9E" stroke-miterlimit="10"/>
<path d="M6.05 4.61L3.41 0.5L0.5 4.42" stroke="#676B9E" stroke-linecap="round" stroke-linejoin="round"/>
<path d="M127.9 81.76L132 79.12L128.09 76.21" stroke="#676B9E" stroke-linecap="round" stroke-linejoin="round"/>
<path d="M3.27002 66.25C3.27002 66.25 76.03 61.41 104.42 3.60001" stroke="#676B9E" stroke-linecap="round" stroke-linejoin="round"/>
<path d="M20.65 63.45V78.99" stroke="#676B9E" stroke-linecap="round" stroke-linejoin="round"/>
<path d="M38.02 58.51V78.99" stroke="#676B9E" stroke-linecap="round" stroke-linejoin="round"/>
<path d="M55.39 51.22V78.99" stroke="#676B9E" stroke-linecap="round" stroke-linejoin="round"/>
<path d="M72.76 40.72V78.99" stroke="#676B9E" stroke-linecap="round" stroke-linejoin="round"/>
<path d="M90.13 24.98V78.99" stroke="#676B9E" stroke-linecap="round" stroke-linejoin="round"/>
<path d="M38.02 75.67L45.21 78.99" stroke="#676B9E" stroke-width="0.5" stroke-linecap="round" stroke-linejoin="round"/>
<path d="M38.02 72.36L52.93 79.06" stroke="#676B9E" stroke-width="0.5" stroke-linecap="round" stroke-linejoin="round"/>
<path d="M38.02 69.04L55.39 76.85" stroke="#676B9E" stroke-width="0.5" stroke-linecap="round" stroke-linejoin="round"/>
<path d="M38.02 65.73L55.39 73.53" stroke="#676B9E" stroke-width="0.5" stroke-linecap="round" stroke-linejoin="round"/>
<path d="M38.02 62.41L55.39 70.22" stroke="#676B9E" stroke-width="0.5" stroke-linecap="round" stroke-linejoin="round"/>
<path d="M38.02 59.09L55.39 66.9" stroke="#676B9E" stroke-width="0.5" stroke-linecap="round" stroke-linejoin="round"/>
<path d="M41.39 57.3L55.39 63.59" stroke="#676B9E" stroke-width="0.5" stroke-linecap="round" stroke-linejoin="round"/>
<path d="M45.34 55.76L55.39 60.27" stroke="#676B9E" stroke-width="0.5" stroke-linecap="round" stroke-linejoin="round"/>
<path d="M49.14 54.15L55.39 56.96" stroke="#676B9E" stroke-width="0.5" stroke-linecap="round" stroke-linejoin="round"/>
<path d="M52.86 52.51L55.39 53.64" stroke="#676B9E" stroke-width="0.5" stroke-linecap="round" stroke-linejoin="round"/>
<path d="M72.76 77.33L76.51 78.99" stroke="#676B9E" stroke-width="0.5" stroke-linecap="round" stroke-linejoin="round"/>
<path d="M72.76 74.01L83.86 78.92" stroke="#676B9E" stroke-width="0.5" stroke-linecap="round" stroke-linejoin="round"/>
<path d="M72.76 70.7L90.13 78.51" stroke="#676B9E" stroke-width="0.5" stroke-linecap="round" stroke-linejoin="round"/>
<path d="M72.76 67.38L90.13 75.19" stroke="#676B9E" stroke-width="0.5" stroke-linecap="round" stroke-linejoin="round"/>
<path d="M72.76 64.07L90.13 71.88" stroke="#676B9E" stroke-width="0.5" stroke-linecap="round" stroke-linejoin="round"/>
<path d="M72.76 60.75L90.13 68.56" stroke="#676B9E" stroke-width="0.5" stroke-linecap="round" stroke-linejoin="round"/>
<path d="M72.76 57.44L90.13 65.25" stroke="#676B9E" stroke-width="0.5" stroke-linecap="round" stroke-linejoin="round"/>
<path d="M72.76 54.12L90.13 61.93" stroke="#676B9E" stroke-width="0.5" stroke-linecap="round" stroke-linejoin="round"/>
<path d="M72.76 50.81L90.13 58.62" stroke="#676B9E" stroke-width="0.5" stroke-linecap="round" stroke-linejoin="round"/>
<path d="M72.76 47.49L90.13 55.3" stroke="#676B9E" stroke-width="0.5" stroke-linecap="round" stroke-linejoin="round"/>
<path d="M72.76 44.18L90.13 51.99" stroke="#676B9E" stroke-width="0.5" stroke-linecap="round" stroke-linejoin="round"/>
<path d="M72.76 40.86L90.13 48.67" stroke="#676B9E" stroke-width="0.5" stroke-linecap="round" stroke-linejoin="round"/>
<path d="M75.41 38.74L90.13 45.35" stroke="#676B9E" stroke-width="0.5" stroke-linecap="round" stroke-linejoin="round"/>
<path d="M78.24 36.49L90.13 42.04" stroke="#676B9E" stroke-width="0.5" stroke-linecap="round" stroke-linejoin="round"/>
<path d="M80.63 34.45L90.13 38.72" stroke="#676B9E" stroke-width="0.5" stroke-linecap="round" stroke-linejoin="round"/>
<path d="M83.1 32.11L90.13 35.41" stroke="#676B9E" stroke-width="0.5" stroke-linecap="round" stroke-linejoin="round"/>
<path d="M85.52 29.96L90.13 32.09" stroke="#676B9E" stroke-width="0.5" stroke-linecap="round" stroke-linejoin="round"/>
<path d="M87.7 27.65L90.13 28.78" stroke="#676B9E" stroke-width="0.5" stroke-linecap="round" stroke-linejoin="round"/>
<path d="M3.27002 77.33L6.71002 78.87" stroke="#676B9E" stroke-width="0.5" stroke-linecap="round" stroke-linejoin="round"/>
<path d="M3.27002 74.01L14.33 78.98" stroke="#676B9E" stroke-width="0.5" stroke-linecap="round" stroke-linejoin="round"/>
<path d="M3.27002 70.7L20.65 78.51" stroke="#676B9E" stroke-width="0.5" stroke-linecap="round" stroke-linejoin="round"/>
<path d="M3.27002 67.38L20.65 75.19" stroke="#676B9E" stroke-width="0.5" stroke-linecap="round" stroke-linejoin="round"/>
<path d="M6.96002 65.73L20.65 71.88" stroke="#676B9E" stroke-width="0.5" stroke-linecap="round" stroke-linejoin="round"/>
<path d="M12.75 65.01L20.65 68.56" stroke="#676B9E" stroke-width="0.5" stroke-linecap="round" stroke-linejoin="round"/>
<path d="M18.02 64.07L20.65 65.25" stroke="#676B9E" stroke-width="0.5" stroke-linecap="round" stroke-linejoin="round"/>
</g>
<defs>
<clipPath id="clip0_141_5543">
<rect width="132.5" height="82.26" fill="white"/>
</clipPath>
</defs>
</svg>
