<svg width="173" height="108" viewBox="0 0 173 108" fill="none" xmlns="http://www.w3.org/2000/svg">
<path d="M2.44231 0.617188H0.634621V107.379H2.44231V0.617188Z" fill="black"/>
<path d="M6.0577 0.617188H4.25001V107.379H6.0577V0.617188Z" fill="black"/>
<path d="M13.2885 0.617188H11.4808V91.0934H13.2885V0.617188Z" fill="black"/>
<path d="M18.7115 0.617188H15.0962V91.0934H18.7115V0.617188Z" fill="black"/>
<path d="M14.932 100.815C14.4789 101.204 14.064 101.479 13.6874 101.641C13.3108 101.803 12.9136 101.884 12.4958 101.884C11.5249 101.884 10.6761 101.495 9.94935 100.718C9.22262 99.9404 8.85926 98.9743 8.85926 97.8198C8.85926 96.9185 9.10935 96.0999 9.60952 95.3636C10.2921 94.3504 11.2542 93.8438 12.4958 93.8438C13.3844 93.8438 14.1611 94.1103 14.8261 94.6434C15.491 95.1765 15.9794 95.9452 16.2913 96.9494C16.6031 97.9537 16.7591 99.0007 16.7591 100.091C16.7591 101.94 16.0441 103.424 14.6142 104.544C13.508 105.404 12.2958 105.834 10.9777 105.834C10.248 105.834 9.68308 105.686 9.28295 105.392C9.01226 105.197 8.87692 104.941 8.87692 104.623C8.87692 104.364 8.96371 104.148 9.1373 103.974C9.31089 103.8 9.5242 103.713 9.77724 103.713C9.91846 103.713 10.0773 103.757 10.2539 103.846C10.4834 103.964 10.7246 104.022 10.9777 104.022C11.8897 104.022 12.7312 103.712 13.5021 103.09C14.2729 102.469 14.7496 101.71 14.932 100.815ZM14.676 97.9611C14.4818 97.1248 14.195 96.5313 13.8154 96.1808C13.4359 95.8302 13.0019 95.6551 12.5135 95.6551C12.0015 95.6551 11.5661 95.8509 11.2071 96.2426C10.8482 96.6344 10.6687 97.1541 10.6687 97.8021C10.6687 98.4796 10.8497 99.0273 11.2116 99.4455C11.5735 99.8637 11.9868 100.073 12.4517 100.073C13.2696 100.073 14.0111 99.369 14.676 97.9611Z" fill="black"/>
<path d="M22.3269 0.617188H20.5192V91.0934H22.3269V0.617188Z" fill="black"/>
<path d="M31.3654 0.617188H25.9423V91.0934H31.3654V0.617188Z" fill="black"/>
<path d="M28.9893 98.8447V100.833C28.9893 102.011 28.6494 103.139 27.9698 104.217C27.2901 105.295 26.3177 105.834 25.0526 105.834C24.3229 105.834 23.7065 105.673 23.2034 105.352C22.7003 105.031 22.2237 104.439 21.7735 103.576C21.3233 102.713 21.0983 101.799 21.0983 100.833V98.8447C21.0983 97.6725 21.4366 96.5459 22.1133 95.4651C22.79 94.3843 23.761 93.8438 25.0261 93.8438C25.7499 93.8438 26.3633 94.0028 26.8665 94.3209C27.3696 94.639 27.8492 95.2295 28.3052 96.0924C28.7612 96.9554 28.9893 97.8728 28.9893 98.8447ZM27.171 98.8447C27.171 97.8611 26.8974 97.001 26.3501 96.2647C26.0382 95.8583 25.5998 95.6551 25.0349 95.6551C24.4877 95.6551 24.0405 95.8789 23.6933 96.3266C23.1696 97.0039 22.9077 97.8433 22.9077 98.8447V100.833C22.9077 101.822 23.1843 102.682 23.7374 103.413C24.0434 103.819 24.4818 104.022 25.0526 104.022C25.594 104.022 26.0382 103.798 26.3854 103.351C26.9091 102.674 27.171 101.834 27.171 100.833V98.8447Z" fill="black"/>
<path d="M36.7885 0.617188H33.1731V91.0934H36.7885V0.617188Z" fill="black"/>
<path d="M44.0192 0.617188H40.4038V91.0934H44.0192V0.617188Z" fill="black"/>
<path d="M38.6156 93.8438V103.757H40.4427C40.8781 103.757 41.1885 103.841 41.3739 104.009C41.5593 104.177 41.6519 104.396 41.6519 104.667C41.6519 104.932 41.5593 105.149 41.3739 105.317C41.1885 105.485 40.8781 105.569 40.4427 105.569H34.979C34.5436 105.569 34.2331 105.485 34.0478 105.317C33.8624 105.149 33.7698 104.929 33.7698 104.659C33.7698 104.393 33.8624 104.177 34.0478 104.009C34.2331 103.841 34.5436 103.757 34.979 103.757H36.8061V96.2028L35.1908 96.627C34.9319 96.6977 34.7377 96.733 34.6083 96.733C34.3788 96.733 34.1802 96.6416 34.0125 96.4591C33.8448 96.2765 33.7609 96.0526 33.7609 95.7875C33.7609 95.5462 33.8227 95.3562 33.9463 95.2177C34.0699 95.0793 34.3288 94.957 34.723 94.8509L38.6156 93.8438Z" fill="black"/>
<path d="M49.4423 0.617188H47.6346V91.0934H49.4423V0.617188Z" fill="black"/>
<path d="M56.6731 0.617188H53.0577V91.0934H56.6731V0.617188Z" fill="black"/>
<path d="M48.6567 103.757H52.6199C52.8376 103.581 53.0436 103.492 53.2378 103.492C53.5143 103.492 53.7335 103.584 53.8953 103.766C54.0572 103.949 54.1381 104.261 54.1381 104.703V105.569H45.894V103.651C49.154 100.959 51.1223 99.2276 51.799 98.4559C52.1403 98.0612 52.311 97.6872 52.311 97.3338C52.311 96.8921 52.1182 96.5018 51.7328 96.163C51.3474 95.8245 50.834 95.6551 50.1926 95.6551C49.5453 95.6551 49.0069 95.8436 48.5773 96.2206C48.3537 96.4209 48.1742 96.7184 48.0389 97.1128C47.9565 97.3604 47.8432 97.537 47.699 97.643C47.5549 97.7491 47.3769 97.8021 47.165 97.8021C46.9179 97.8021 46.7046 97.7138 46.5251 97.537C46.3456 97.3604 46.2559 97.1541 46.2559 96.9185C46.2559 96.5651 46.4192 96.1234 46.7458 95.5932C47.0724 95.063 47.549 94.639 48.1757 94.3209C48.8024 94.0028 49.4835 93.8438 50.2191 93.8438C51.3606 93.8438 52.2962 94.1899 53.0259 94.8819C53.7556 95.574 54.1204 96.412 54.1204 97.3957C54.1204 97.8964 54.016 98.3601 53.8071 98.7872C53.5982 99.2142 53.0965 99.8049 52.3021 100.559C51.6784 101.154 50.4633 102.22 48.6567 103.757Z" fill="black"/>
<path d="M65.7115 0.617188H58.4808V91.0934H65.7115V0.617188Z" fill="black"/>
<path d="M69.3269 0.617188H67.5192V91.0934H69.3269V0.617188Z" fill="black"/>
<path d="M65.5827 99.5162C66.1181 99.8814 66.5183 100.304 66.7831 100.784C67.0479 101.264 67.1803 101.802 67.1803 102.397C67.1803 103.039 67.0052 103.632 66.6551 104.177C66.305 104.722 65.7974 105.134 65.1325 105.414C64.4676 105.694 63.5967 105.834 62.5198 105.834C61.1193 105.834 60.066 105.616 59.3599 105.18C58.9657 104.932 58.7685 104.638 58.7685 104.296C58.7685 104.037 58.8553 103.818 59.0289 103.638C59.2025 103.458 59.4129 103.369 59.66 103.369C59.8307 103.369 60.0072 103.427 60.1896 103.545C60.4485 103.722 60.6927 103.84 60.9222 103.899C61.2753 103.981 61.7607 104.022 62.3786 104.022C63.4319 104.022 64.194 103.885 64.6647 103.612C65.1355 103.338 65.3708 102.95 65.3708 102.45C65.3708 102.079 65.234 101.721 64.9604 101.376C64.6868 101.032 64.3205 100.765 63.8615 100.576C63.5967 100.47 63.1495 100.397 62.5198 100.356C62.2197 100.338 61.9888 100.245 61.8269 100.077C61.6651 99.9095 61.5842 99.7017 61.5842 99.4544C61.5842 99.1952 61.6725 98.9772 61.849 98.8006C62.0256 98.6238 62.2491 98.5355 62.5198 98.5355C63.12 98.5355 63.4407 98.5326 63.4819 98.5266C63.7173 98.5031 63.9527 98.4266 64.1881 98.2968C64.4234 98.1672 64.6132 97.9892 64.7574 97.7623C64.9016 97.5355 64.9736 97.3014 64.9736 97.06C64.9736 96.6771 64.8045 96.3458 64.4661 96.0658C64.1278 95.7861 63.6202 95.6462 62.9435 95.6462C62.0726 95.6462 61.4077 95.8996 60.9487 96.406C60.8133 96.5533 60.7045 96.6476 60.6221 96.6889C60.4985 96.7536 60.3603 96.786 60.2073 96.786C59.9601 96.786 59.7483 96.6977 59.5718 96.5209C59.3952 96.3442 59.3069 96.1263 59.3069 95.8672C59.3069 95.4607 59.5776 95.0661 60.119 94.6832C60.9075 94.1235 61.8931 93.8438 63.0759 93.8438C64.194 93.8438 65.0913 94.1619 65.768 94.7981C66.4447 95.4341 66.7831 96.1999 66.7831 97.0953C66.7831 97.5605 66.6831 97.995 66.483 98.3985C66.2829 98.802 65.9828 99.1746 65.5827 99.5162Z" fill="black"/>
<path d="M78.3654 0.617188H72.9423V91.0934H78.3654V0.617188Z" fill="black"/>
<path d="M81.9808 0.617188H80.1731V91.0934H81.9808V0.617188Z" fill="black"/>
<path d="M78.3071 94.1328V101.219C78.6896 101.219 78.9721 101.303 79.1545 101.471C79.3369 101.639 79.4281 101.855 79.4281 102.12C79.4281 102.385 79.3354 102.603 79.1501 102.774C78.9647 102.945 78.6837 103.03 78.3071 103.03V103.755C78.6896 103.755 78.9721 103.84 79.1545 104.011C79.3369 104.182 79.4281 104.4 79.4281 104.665C79.4281 104.93 79.3354 105.146 79.1501 105.314C78.9647 105.482 78.6543 105.566 78.2189 105.566H75.7915C75.3561 105.566 75.0457 105.482 74.8603 105.314C74.675 105.146 74.5823 104.927 74.5823 104.656C74.5823 104.391 74.675 104.175 74.8603 104.007C75.0457 103.839 75.3561 103.755 75.7915 103.755H76.4977V103.03H71.5812V101.519L75.9151 94.1328H78.3071ZM76.4977 101.219V96.7658L73.8762 101.219H76.4977Z" fill="black"/>
<path d="M85.5961 0.617188H83.7885V107.379H85.5961V0.617188Z" fill="black"/>
<path d="M89.2115 0.617188H87.4038V107.379H89.2115V0.617188Z" fill="black"/>
<path d="M94.6346 0.617188H91.0192V91.0934H94.6346V0.617188Z" fill="black"/>
<path d="M101.865 0.617188H98.25V91.0934H101.865V0.617188Z" fill="black"/>
<path d="M98.2694 93.8438V103.757H100.097C100.532 103.757 100.842 103.841 101.028 104.009C101.213 104.177 101.306 104.396 101.306 104.667C101.306 104.932 101.213 105.149 101.028 105.317C100.842 105.485 100.532 105.569 100.097 105.569H94.6328C94.1974 105.569 93.887 105.485 93.7016 105.317C93.5163 105.149 93.4236 104.929 93.4236 104.659C93.4236 104.393 93.5163 104.177 93.7016 104.009C93.887 103.841 94.1974 103.757 94.6328 103.757H96.46V96.2028L94.8447 96.627C94.5858 96.6977 94.3916 96.733 94.2621 96.733C94.0326 96.733 93.834 96.6416 93.6663 96.4591C93.4986 96.2765 93.4148 96.0526 93.4148 95.7875C93.4148 95.5462 93.4765 95.3562 93.6001 95.2177C93.7237 95.0793 93.9826 94.957 94.3769 94.8509L98.2694 93.8438Z" fill="black"/>
<path d="M107.288 0.617188H103.673V91.0934H107.288V0.617188Z" fill="black"/>
<path d="M112.712 0.617188H109.096V91.0934H112.712V0.617188Z" fill="black"/>
<path d="M108.311 103.757H112.274C112.491 103.581 112.697 103.492 112.892 103.492C113.168 103.492 113.387 103.584 113.549 103.766C113.711 103.949 113.792 104.261 113.792 104.703V105.569H105.548V103.651C108.808 100.959 110.776 99.2276 111.453 98.4559C111.794 98.0612 111.965 97.6872 111.965 97.3338C111.965 96.8921 111.772 96.5018 111.387 96.163C111.001 95.8245 110.488 95.6551 109.846 95.6551C109.199 95.6551 108.661 95.8436 108.231 96.2206C108.008 96.4209 107.828 96.7184 107.693 97.1128C107.61 97.3604 107.497 97.537 107.353 97.643C107.209 97.7491 107.031 97.8021 106.819 97.8021C106.572 97.8021 106.358 97.7138 106.179 97.537C105.999 97.3604 105.91 97.1541 105.91 96.9185C105.91 96.5651 106.073 96.1234 106.4 95.5932C106.726 95.063 107.203 94.639 107.83 94.3209C108.456 94.0028 109.137 93.8438 109.873 93.8438C111.014 93.8438 111.95 94.1899 112.68 94.8819C113.409 95.574 113.774 96.412 113.774 97.3957C113.774 97.8964 113.67 98.3601 113.461 98.7872C113.252 99.2142 112.75 99.8049 111.956 100.559C111.332 101.154 110.117 102.22 108.311 103.757Z" fill="black"/>
<path d="M118.135 0.617188H116.327V91.0934H118.135V0.617188Z" fill="black"/>
<path d="M127.173 0.617188H125.365V91.0934H127.173V0.617188Z" fill="black"/>
<path d="M125.237 99.5162C125.772 99.8814 126.172 100.304 126.437 100.784C126.702 101.264 126.834 101.802 126.834 102.397C126.834 103.039 126.659 103.632 126.309 104.177C125.959 104.722 125.451 105.134 124.786 105.414C124.121 105.694 123.251 105.834 122.174 105.834C120.773 105.834 119.72 105.616 119.014 105.18C118.619 104.932 118.422 104.638 118.422 104.296C118.422 104.037 118.509 103.818 118.683 103.638C118.856 103.458 119.067 103.369 119.314 103.369C119.484 103.369 119.661 103.427 119.843 103.545C120.102 103.722 120.347 103.84 120.576 103.899C120.929 103.981 121.415 104.022 122.032 104.022C123.086 104.022 123.848 103.885 124.319 103.612C124.789 103.338 125.025 102.95 125.025 102.45C125.025 102.079 124.888 101.721 124.614 101.376C124.341 101.032 123.974 100.765 123.515 100.576C123.251 100.47 122.803 100.397 122.174 100.356C121.874 100.338 121.643 100.245 121.481 100.077C121.319 99.9095 121.238 99.7017 121.238 99.4544C121.238 99.1952 121.326 98.9772 121.503 98.8006C121.679 98.6238 121.903 98.5355 122.174 98.5355C122.774 98.5355 123.095 98.5326 123.136 98.5266C123.371 98.5031 123.607 98.4266 123.842 98.2968C124.077 98.1672 124.267 97.9892 124.411 97.7623C124.555 97.5355 124.627 97.3014 124.627 97.06C124.627 96.6771 124.458 96.3458 124.12 96.0658C123.782 95.7861 123.274 95.6462 122.597 95.6462C121.726 95.6462 121.062 95.8996 120.603 96.406C120.467 96.5533 120.358 96.6476 120.276 96.6889C120.152 96.7536 120.014 96.786 119.861 96.786C119.614 96.786 119.402 96.6977 119.226 96.5209C119.049 96.3442 118.961 96.1263 118.961 95.8672C118.961 95.4607 119.231 95.0661 119.773 94.6832C120.561 94.1235 121.547 93.8438 122.73 93.8438C123.848 93.8438 124.745 94.1619 125.422 94.7981C126.099 95.4341 126.437 96.1999 126.437 97.0953C126.437 97.5605 126.337 97.995 126.137 98.3985C125.937 98.802 125.637 99.1746 125.237 99.5162Z" fill="black"/>
<path d="M130.788 0.617188H128.981V91.0934H130.788V0.617188Z" fill="black"/>
<path d="M138.019 0.617188H132.596V91.0934H138.019V0.617188Z" fill="black"/>
<path d="M137.961 94.1328V101.219C138.343 101.219 138.626 101.303 138.808 101.471C138.991 101.639 139.082 101.855 139.082 102.12C139.082 102.385 138.989 102.603 138.804 102.774C138.619 102.945 138.338 103.03 137.961 103.03V103.755C138.343 103.755 138.626 103.84 138.808 104.011C138.991 104.182 139.082 104.4 139.082 104.665C139.082 104.93 138.989 105.146 138.804 105.314C138.619 105.482 138.308 105.566 137.873 105.566H135.445C135.01 105.566 134.7 105.482 134.514 105.314C134.329 105.146 134.236 104.927 134.236 104.656C134.236 104.391 134.329 104.175 134.514 104.007C134.7 103.839 135.01 103.755 135.445 103.755H136.152V103.03H131.235V101.519L135.569 94.1328H137.961ZM136.152 101.219V96.7658L133.53 101.219H136.152Z" fill="black"/>
<path d="M143.442 0.617188H141.635V91.0934H143.442V0.617188Z" fill="black"/>
<path d="M152.481 0.617188H147.058V91.0934H152.481V0.617188Z" fill="black"/>
<path d="M146.44 95.9441V98.1C147.111 97.8879 147.72 97.7819 148.267 97.7819C149.379 97.7819 150.303 98.1619 151.039 98.9217C151.774 99.6817 152.142 100.662 152.142 101.864C152.142 103.101 151.77 104.071 151.025 104.775C150.281 105.479 149.141 105.831 147.605 105.831C146.252 105.831 145.181 105.575 144.392 105.063C143.933 104.768 143.704 104.429 143.704 104.046C143.704 103.805 143.793 103.594 143.973 103.415C144.152 103.235 144.366 103.145 144.613 103.145C144.819 103.145 145.042 103.244 145.284 103.441C145.525 103.638 145.778 103.775 146.043 103.852C146.419 103.964 146.902 104.02 147.49 104.02C148.585 104.02 149.332 103.845 149.732 103.494C150.132 103.144 150.332 102.606 150.332 101.882C150.332 101.169 150.14 100.609 149.754 100.203C149.369 99.7964 148.873 99.5932 148.267 99.5932C147.614 99.5932 146.869 99.8053 146.034 100.229C145.846 100.33 145.681 100.38 145.54 100.38C145.281 100.38 145.064 100.285 144.891 100.097C144.717 99.9084 144.63 99.664 144.63 99.3636V94.1328H150.165C150.6 94.1328 150.911 94.2168 151.096 94.3847C151.281 94.5526 151.374 94.7719 151.374 95.043C151.374 95.3081 151.281 95.5245 151.096 95.6924C150.911 95.8602 150.6 95.9441 150.165 95.9441H146.44Z" fill="black"/>
<path d="M156.096 0.617188H154.288V91.0934H156.096V0.617188Z" fill="black"/>
<path d="M163.327 0.617188H161.519V91.0934H163.327V0.617188Z" fill="black"/>
<path d="M162.483 95.9441H158.343C158.32 96.2975 158.229 96.5523 158.07 96.7085C157.911 96.8645 157.702 96.9426 157.443 96.9426C157.172 96.9426 156.953 96.8513 156.786 96.6687C156.618 96.4861 156.534 96.1768 156.534 95.7409V94.1328H164.39V95.9441L161.459 104.674C161.336 105.039 161.199 105.282 161.049 105.403C160.899 105.523 160.718 105.584 160.506 105.584C160.253 105.584 160.037 105.495 159.857 105.319C159.678 105.142 159.588 104.939 159.588 104.709C159.588 104.58 159.635 104.373 159.729 104.091L162.483 95.9441Z" fill="black"/>
<path d="M168.75 0.617188H166.942V107.379H168.75V0.617188Z" fill="black"/>
<path d="M172.365 0.617188H170.558V107.379H172.365V0.617188Z" fill="black"/>
</svg>
