<svg xmlns="http://www.w3.org/2000/svg" width="24" height="19.501" viewBox="0 0 24 19.501">
  <path id="Vector" d="M7.55,19.75A13.914,13.914,0,0,0,21.558,5.742c0-.211,0-.427-.014-.638A10,10,0,0,0,24,2.555a9.708,9.708,0,0,1-2.826.773A4.951,4.951,0,0,0,23.339.606,9.9,9.9,0,0,1,20.213,1.8a4.93,4.93,0,0,0-8.394,4.49A13.984,13.984,0,0,1,6.2,4.8,13.985,13.985,0,0,1,1.673,1.149,4.929,4.929,0,0,0,3.2,7.72,4.93,4.93,0,0,1,.966,7.106v.061a4.922,4.922,0,0,0,3.951,4.828,4.893,4.893,0,0,1-2.221.084,4.934,4.934,0,0,0,4.6,3.422A9.875,9.875,0,0,1,0,17.538,13.969,13.969,0,0,0,7.55,19.75Z" transform="translate(0 -0.249)" fill="#98a2b3"/>
</svg>
