<svg width="42" height="32" viewBox="0 0 42 32" fill="none" xmlns="http://www.w3.org/2000/svg">
<path d="M0.373049 20.7907C0.371894 18.9539 0.898838 17.1472 1.90408 15.5413C2.90933 13.9353 4.35967 12.5833 6.11805 11.6128C6.58213 8.40345 8.34892 5.45404 11.0878 3.31656C13.8266 1.17907 17.3498 0 20.998 0C24.6463 0 28.1695 1.17907 30.9083 3.31656C33.6472 5.45404 35.414 8.40345 35.8781 11.6128C38.0591 12.8163 39.7557 14.6002 40.7255 16.7098C41.6953 18.8194 41.8888 21.1468 41.2783 23.3598C40.6679 25.5727 39.2846 27.558 37.3262 29.0322C35.3677 30.5063 32.9342 31.394 30.3731 31.5684L11.623 31.6C5.33055 31.1443 0.373049 26.4814 0.373049 20.7907ZM30.088 28.2525C31.8615 28.1315 33.5465 27.5166 34.9023 26.4956C36.2582 25.4746 37.2155 24.0996 37.6377 22.5672C38.0598 21.0347 37.9251 19.4232 37.2528 17.9627C36.5806 16.5022 35.4051 15.2674 33.8943 14.4349L32.3812 13.5984L32.1562 12.0319C31.8057 9.62673 30.4797 7.41706 28.426 5.81588C26.3723 4.21469 23.7315 3.33157 20.9971 3.33157C18.2627 3.33157 15.6219 4.21469 13.5682 5.81588C11.5145 7.41706 10.1885 9.62673 9.83805 12.0319L9.61305 13.5984L8.10367 14.4349C6.59298 15.2674 5.41752 16.5019 4.74517 17.9623C4.07282 19.4226 3.93797 21.0341 4.35988 22.5665C4.78179 24.0989 5.73887 25.4738 7.09445 26.495C8.45003 27.5161 10.1348 28.1312 11.908 28.2525L12.2324 28.2741H29.7637L30.088 28.2525ZM22.873 18.2963V24.9481H19.123V18.2963H13.498L20.998 9.98146L28.498 18.2963H22.873Z" fill="black"/>
</svg>
