<svg width="14" height="15" viewBox="0 0 14 15" fill="none" xmlns="http://www.w3.org/2000/svg">
<path d="M11.3334 12.75V11.5833C11.3334 10.9645 11.0875 10.371 10.65 9.93342C10.2124 9.49583 9.61888 9.25 9.00004 9.25H4.91671C4.29787 9.25 3.70438 9.49583 3.26679 9.93342C2.82921 10.371 2.58337 10.9645 2.58337 11.5833V12.75" fill="#01928F"/>
<path d="M6.95837 6.91667C8.24704 6.91667 9.29171 5.872 9.29171 4.58333C9.29171 3.29467 8.24704 2.25 6.95837 2.25C5.66971 2.25 4.62504 3.29467 4.62504 4.58333C4.62504 5.872 5.66971 6.91667 6.95837 6.91667Z" fill="#01928F"/>
<path d="M11.3334 12.75V11.5833C11.3334 10.9645 11.0875 10.371 10.65 9.93342C10.2124 9.49583 9.61888 9.25 9.00004 9.25H4.91671C4.29787 9.25 3.70438 9.49583 3.26679 9.93342C2.82921 10.371 2.58337 10.9645 2.58337 11.5833V12.75H11.3334ZM9.29171 4.58333C9.29171 5.872 8.24704 6.91667 6.95837 6.91667C5.66971 6.91667 4.62504 5.872 4.62504 4.58333C4.62504 3.29467 5.66971 2.25 6.95837 2.25C8.24704 2.25 9.29171 3.29467 9.29171 4.58333Z" stroke="#01928F" stroke-linecap="round" stroke-linejoin="round"/>
</svg>
