<svg width="21" height="20" viewBox="0 0 21 20" fill="none" xmlns="http://www.w3.org/2000/svg">
<path d="M17.037 17.567C15.2224 19.1393 12.901 20.0033 10.5 20C4.977 20 0.5 15.523 0.5 10C0.5 4.477 4.977 0 10.5 0C16.023 0 20.5 4.477 20.5 10C20.5 12.136 19.83 14.116 18.69 15.74L15.5 10H18.5C18.4998 8.15621 17.8628 6.36906 16.6967 4.94089C15.5305 3.51272 13.9069 2.53119 12.1003 2.16236C10.2938 1.79352 8.41533 2.06002 6.78268 2.91677C5.15002 3.77351 3.86342 5.16791 3.14052 6.86408C2.41762 8.56025 2.30281 10.4541 2.81549 12.2251C3.32818 13.9962 4.43689 15.5358 5.95408 16.5836C7.47127 17.6313 9.30379 18.1228 11.1416 17.9749C12.9795 17.827 14.7099 17.0488 16.04 15.772L17.037 17.567Z" fill="black"/>
</svg>
