<svg width="24" height="24" viewBox="0 0 24 24" fill="none" xmlns="http://www.w3.org/2000/svg">
<path d="M11.9999 23.6654C5.55642 23.6654 0.333252 18.4422 0.333252 11.9987C0.333252 5.5552 5.55642 0.332031 11.9999 0.332031C18.4434 0.332031 23.6666 5.5552 23.6666 11.9987C23.6666 18.4422 18.4434 23.6654 11.9999 23.6654ZM11.9999 21.332C14.4753 21.332 16.8492 20.3487 18.5996 18.5984C20.3499 16.848 21.3332 14.474 21.3332 11.9987C21.3332 9.52334 20.3499 7.14937 18.5996 5.39903C16.8492 3.64869 14.4753 2.66536 11.9999 2.66536C9.52456 2.66536 7.15059 3.64869 5.40025 5.39903C3.64992 7.14937 2.66658 9.52334 2.66658 11.9987C2.66658 14.474 3.64992 16.848 5.40025 18.5984C7.15059 20.3487 9.52456 21.332 11.9999 21.332ZM10.8333 15.4987H13.1666V17.832H10.8333V15.4987ZM10.8333 6.16536H13.1666V13.1654H10.8333V6.16536Z" fill="black"/>
<path d="M11.9999 23.6654C5.55642 23.6654 0.333252 18.4422 0.333252 11.9987C0.333252 5.5552 5.55642 0.332031 11.9999 0.332031C18.4434 0.332031 23.6666 5.5552 23.6666 11.9987C23.6666 18.4422 18.4434 23.6654 11.9999 23.6654ZM11.9999 21.332C14.4753 21.332 16.8492 20.3487 18.5996 18.5984C20.3499 16.848 21.3332 14.474 21.3332 11.9987C21.3332 9.52334 20.3499 7.14937 18.5996 5.39903C16.8492 3.64869 14.4753 2.66536 11.9999 2.66536C9.52456 2.66536 7.15059 3.64869 5.40025 5.39903C3.64992 7.14937 2.66658 9.52334 2.66658 11.9987C2.66658 14.474 3.64992 16.848 5.40025 18.5984C7.15059 20.3487 9.52456 21.332 11.9999 21.332ZM10.8333 15.4987H13.1666V17.832H10.8333V15.4987ZM10.8333 6.16536H13.1666V13.1654H10.8333V6.16536Z" fill="black" fill-opacity="0.2"/>
</svg>
