<svg width="21" height="21" viewBox="0 0 21 21" fill="none" xmlns="http://www.w3.org/2000/svg">
<path d="M11.35 0.0996094L1.45103 1.51461L0.0370293 11.4146L9.22903 20.6066C9.41656 20.7941 9.67086 20.8994 9.93603 20.8994C10.2012 20.8994 10.4555 20.7941 10.643 20.6066L20.543 10.7066C20.7305 10.5191 20.8358 10.2648 20.8358 9.99961C20.8358 9.73444 20.7305 9.48014 20.543 9.29261L11.35 0.0996094ZM8.52203 8.58561C8.33627 8.7713 8.11576 8.91858 7.87309 9.01905C7.63041 9.11952 7.37033 9.17121 7.10767 9.17116C6.84502 9.17111 6.58496 9.11934 6.34232 9.01878C6.09968 8.91823 5.87922 8.77086 5.69353 8.58511C5.50784 8.39935 5.36055 8.17884 5.26009 7.93617C5.15962 7.69349 5.10793 7.43341 5.10798 7.17076C5.10802 6.90811 5.1598 6.64804 5.26036 6.4054C5.36091 6.16276 5.50827 5.9423 5.69403 5.75661C5.87978 5.57092 6.10029 5.42364 6.34297 5.32317C6.58564 5.2227 6.84573 5.17101 7.10838 5.17106C7.63883 5.17115 8.14751 5.38196 8.52253 5.75711C8.89754 6.13226 9.10817 6.64102 9.10808 7.17146C9.10799 7.70191 8.89718 8.21059 8.52203 8.58561Z" fill="white"/>
</svg>
