<svg width="24" height="24" viewBox="0 0 24 24" fill="none" xmlns="http://www.w3.org/2000/svg">
<path d="M12.3334 23.6663C5.88991 23.6663 0.666748 18.4432 0.666748 11.9997C0.666748 5.55617 5.88991 0.333008 12.3334 0.333008C18.7769 0.333008 24.0001 5.55617 24.0001 11.9997C24.0001 18.4432 18.7769 23.6663 12.3334 23.6663ZM12.3334 21.333C14.8088 21.333 17.1827 20.3497 18.9331 18.5993C20.6834 16.849 21.6667 14.475 21.6667 11.9997C21.6667 9.52432 20.6834 7.15035 18.9331 5.40001C17.1827 3.64967 14.8088 2.66634 12.3334 2.66634C9.85806 2.66634 7.48409 3.64967 5.73375 5.40001C3.98341 7.15035 3.00008 9.52432 3.00008 11.9997C3.00008 14.475 3.98341 16.849 5.73375 18.5993C7.48409 20.3497 9.85806 21.333 12.3334 21.333ZM11.1667 15.4997H13.5001V17.833H11.1667V15.4997ZM11.1667 6.16634H13.5001V13.1663H11.1667V6.16634Z" fill="black"/>
</svg>
