<svg width="24" height="24" viewBox="0 0 24 24" fill="none" xmlns="http://www.w3.org/2000/svg">
<path d="M11.9999 23.6673C5.55642 23.6673 0.333252 18.4441 0.333252 12.0006C0.333252 5.55715 5.55642 0.333984 11.9999 0.333984C18.4434 0.333984 23.6666 5.55715 23.6666 12.0006C23.6666 18.4441 18.4434 23.6673 11.9999 23.6673ZM11.9999 21.334C14.4753 21.334 16.8492 20.3507 18.5996 18.6003C20.3499 16.85 21.3332 14.476 21.3332 12.0006C21.3332 9.5253 20.3499 7.15133 18.5996 5.40099C16.8492 3.65065 14.4753 2.66732 11.9999 2.66732C9.52456 2.66732 7.15059 3.65065 5.40025 5.40099C3.64992 7.15133 2.66658 9.5253 2.66658 12.0006C2.66658 14.476 3.64992 16.85 5.40025 18.6003C7.15059 20.3507 9.52456 21.334 11.9999 21.334ZM10.8333 15.5006H13.1666V17.834H10.8333V15.5006ZM10.8333 6.16732H13.1666V13.1673H10.8333V6.16732Z" fill="#DA251C"/>
</svg>
