<svg width="16" height="16" viewBox="0 0 16 16" fill="none" xmlns="http://www.w3.org/2000/svg">
<path d="M8 15.9414C12.1421 15.9414 15.5 12.5835 15.5 8.44141C15.5 4.29927 12.1421 0.941406 8 0.941406C3.85786 0.941406 0.5 4.29927 0.5 8.44141C0.5 12.5835 3.85786 15.9414 8 15.9414Z" fill="#0066FF"/>
<path d="M6.5 5.44141L11 8.44141L6.5 11.4414V5.44141Z" fill="#0066FF"/>
<path d="M8 15.9414C12.1421 15.9414 15.5 12.5835 15.5 8.44141C15.5 4.29927 12.1421 0.941406 8 0.941406C3.85786 0.941406 0.5 4.29927 0.5 8.44141C0.5 12.5835 3.85786 15.9414 8 15.9414Z" stroke="white" stroke-linecap="round" stroke-linejoin="round"/>
<path d="M6.5 5.44141L11 8.44141L6.5 11.4414V5.44141Z" stroke="white" stroke-linecap="round" stroke-linejoin="round"/>
</svg>
