<svg xmlns="http://www.w3.org/2000/svg" width="58.052" height="35" viewBox="0 0 58.052 35">
  <g id="Rounded" transform="translate(-0.025)">
    <g id="Large">
      <g id="large_american-express" data-name="large/american-express">
        <rect id="Background" width="58" height="35" rx="4" transform="translate(0.025)" fill="#13a8e0"/>
        <g id="Logo" transform="translate(0.131 7.111)">
          <g id="amex" transform="translate(0 0)">
            <path id="Shape" d="M5.674,5.856,4.559,3.047,3.451,5.856ZM30.232,4.737a1.467,1.467,0,0,1-.806.145H27.448V3.317h2.005a1.621,1.621,0,0,1,.772.127.649.649,0,0,1,.342.623A.727.727,0,0,1,30.232,4.737ZM44.347,5.856,43.22,3.047,42.1,5.856ZM18.036,8.9h-1.67L16.36,3.378,14,8.9h-1.43L10.2,3.373V8.9H6.888L6.262,7.324H2.871L2.239,8.9H.47L3.387,1.85h2.42l2.77,6.671V1.85h2.658l2.131,4.78,1.958-4.78h2.712V8.9Zm6.655,0H19.25V1.85h5.441V3.317H20.879v1.27H24.6V6.032H20.879V7.439h3.812V8.9Zm7.671-5.148a1.984,1.984,0,0,1-1.148,1.878,1.893,1.893,0,0,1,.806.593,2.082,2.082,0,0,1,.27,1.293V8.9H30.647l-.006-.889a2.175,2.175,0,0,0-.257-1.373c-.238-.248-.6-.3-1.187-.3H27.448V8.9H25.82V1.85h3.746a3.725,3.725,0,0,1,1.972.337A1.655,1.655,0,0,1,32.362,3.748ZM34.968,8.9H33.307V1.85h1.662Zm19.28,0H51.94L48.853,3.608V8.9H45.536L44.9,7.324H41.519L40.9,8.9H39a3.349,3.349,0,0,1-2.362-.779,3.62,3.62,0,0,1-.87-2.69,3.832,3.832,0,0,1,.878-2.755,3.238,3.238,0,0,1,2.473-.822h1.577V3.36H39.151a1.537,1.537,0,0,0-1.253.417,2.379,2.379,0,0,0-.468,1.6,2.5,2.5,0,0,0,.448,1.655,1.537,1.537,0,0,0,1.135.363h.731l2.3-5.541h2.44l2.757,6.664V1.85h2.48L52.58,6.757V1.85h1.668ZM.451,10.28H3.234l.627-1.565h1.4l.626,1.565h5.475v-1.2l.489,1.2H14.7l.489-1.219V10.28H28.794l-.006-2.569h.263c.184.007.238.024.238.339v2.23h7.038v-.6a5.426,5.426,0,0,0,2.612.6H41.9l.634-1.565h1.4l.62,1.565h5.706V8.793l.864,1.487H55.7V.453H51.175V1.614L50.542.453H45.9V1.614L45.317.453H39.045a5.476,5.476,0,0,0-2.718.574V.453H32v.574A2.622,2.622,0,0,0,30.16.453H14.348L13.287,2.991,12.2.453H7.218V1.614L6.671.453H2.423L.451,5.125V10.28Z" transform="translate(-0.451 -0.453)" fill="#fff"/>
            <path id="Shape-2" data-name="Shape" d="M86.5,45.039H83.53a1.1,1.1,0,0,0-.659.127.555.555,0,0,0-.238.507.531.531,0,0,0,.356.525,1.8,1.8,0,0,0,.628.08l.883.024a2.518,2.518,0,0,1,1.848.567.9.9,0,0,1,.151.174Zm0,4.646a2.5,2.5,0,0,1-2.21.9H81.142V49.075h3.133a.9.9,0,0,0,.659-.174.629.629,0,0,0,.193-.46.587.587,0,0,0-.2-.466.808.808,0,0,0-.574-.156c-1.529-.054-3.437.049-3.437-2.181a2.063,2.063,0,0,1,2.337-2.1H86.5v-1.4H83.484a3.315,3.315,0,0,0-2.038.576v-.576H76.987a3.015,3.015,0,0,0-1.946.576v-.576H67.08v.576a4.126,4.126,0,0,0-2.2-.576H59.632v.576a3.619,3.619,0,0,0-2.3-.576H51.459l-1.345,1.505-1.26-1.505h-8.78v9.834h8.614l1.386-1.529,1.305,1.529,5.31,0V49.662h.522a5.365,5.365,0,0,0,2.269-.346V51.97h4.38V49.407h.211c.27,0,.3.011.3.29V51.97h13.3a3.7,3.7,0,0,0,2.217-.629v.629h4.22a5.491,5.491,0,0,0,2.388-.453ZM80,46.869a2,2,0,0,1,.487,1.493c0,1.516-.916,2.224-2.559,2.224H74.758V49.075h3.16a.934.934,0,0,0,.665-.174.635.635,0,0,0,.192-.46.614.614,0,0,0-.2-.466.836.836,0,0,0-.58-.156c-1.523-.054-3.431.049-3.431-2.181a2.056,2.056,0,0,1,2.329-2.1h3.265v1.5H77.171a1.071,1.071,0,0,0-.653.127.546.546,0,0,0-.245.507.539.539,0,0,0,.356.525,1.815,1.815,0,0,0,.634.08l.877.024A2.57,2.57,0,0,1,80,46.869Zm-14.7-.435a1.514,1.514,0,0,1-.8.145H62.522V45h2.005a1.557,1.557,0,0,1,.777.127.675.675,0,0,1,.337.634A.767.767,0,0,1,65.3,46.434Zm.984.877a1.775,1.775,0,0,1,.8.592,2.109,2.109,0,0,1,.27,1.286v1.4H65.721V49.7a2.143,2.143,0,0,0-.263-1.379c-.238-.252-.6-.313-1.195-.313H62.522v2.574H60.886V43.539h3.76a3.915,3.915,0,0,1,1.96.333,1.662,1.662,0,0,1,.837,1.565A1.974,1.974,0,0,1,66.288,47.311Zm2.057-3.772h5.436V45H69.968v1.281h3.721v1.438H69.968v1.4l3.814.006v1.462H68.346V43.539ZM57.357,46.791h-2.1V45h2.124c.588,0,1,.248,1,.864A.888.888,0,0,1,57.357,46.791ZM53.63,49.945l-2.5-2.871,2.5-2.78Zm-6.458-.828h-4v-1.4h3.576V46.278H43.168V45h4.083l1.781,2.054Zm12.948-3.257c0,1.958-1.413,2.362-2.836,2.362H55.252v2.364H52.087l-2.005-2.333L48,50.586H41.546V43.539H48.1l2,2.31,2.072-2.31h5.2C58.669,43.539,60.121,43.909,60.121,45.861Z" transform="translate(-28.552 -30.015)" fill="#fff"/>
          </g>
        </g>
      </g>
    </g>
  </g>
</svg>
