<svg id="Rounded" xmlns="http://www.w3.org/2000/svg" width="58" height="35" viewBox="0 0 58 35">
  <g id="Large">
    <g id="large_mastercard" data-name="large/mastercard">
      <rect id="Background" width="58" height="35" rx="4" fill="#10427a"/>
      <g id="Logo" transform="translate(15.122 5.816)">
        <g id="mastercard" transform="translate(0 0)">
          <rect id="Rectangle-path" width="7.855" height="14.526" transform="translate(10.599 1.976)" fill="#ff5f00"/>
          <path id="Shape" d="M11.1,9.239a9.364,9.364,0,0,1,3.416-7.263A8.765,8.765,0,0,0,8.978,0,9.106,9.106,0,0,0,0,9.239a9.106,9.106,0,0,0,8.978,9.239A8.765,8.765,0,0,0,14.514,16.5,9.325,9.325,0,0,1,11.1,9.239Z" transform="translate(0 0)" fill="#eb001b"/>
          <path id="Shape-2" data-name="Shape" d="M64.507,9.239a9.106,9.106,0,0,1-8.978,9.239A8.765,8.765,0,0,1,49.993,16.5,9.286,9.286,0,0,0,53.41,9.239a9.364,9.364,0,0,0-3.416-7.263A8.765,8.765,0,0,1,55.53,0,9.122,9.122,0,0,1,64.507,9.239Z" transform="translate(-35.455 0)" fill="#f79e1b"/>
        </g>
        <path id="Shape-3" data-name="Shape" d="M4.238,75.438V73.9a.94.94,0,0,0-1.052-.975,1.125,1.125,0,0,0-.942.436.99.99,0,0,0-.886-.436.921.921,0,0,0-.776.359v-.308H0v2.463H.582v-1.36a.577.577,0,0,1,.637-.642c.388,0,.582.231.582.642v1.36h.582v-1.36a.589.589,0,0,1,.637-.642c.388,0,.582.231.582.642v1.36Zm8.614-2.463H11.91v-.744h-.582v.744H10.8v.488h.526v1.129c0,.565.249.9.914.9a1.645,1.645,0,0,0,.72-.18l-.166-.462a.967.967,0,0,1-.5.128c-.277,0-.388-.154-.388-.411v-1.1h.942v-.488Zm4.93-.051a.794.794,0,0,0-.692.359v-.308h-.582v2.463h.582V74.053c0-.411.194-.642.554-.642a1.74,1.74,0,0,1,.36.051l.166-.513a1.971,1.971,0,0,0-.388-.026Zm-7.45.257a2.018,2.018,0,0,0-1.08-.257c-.665,0-1.108.308-1.108.8,0,.411.332.642.914.718l.277.026c.3.051.471.128.471.257,0,.18-.222.308-.609.308a1.612,1.612,0,0,1-.886-.257l-.277.411a2.072,2.072,0,0,0,1.136.308c.776,0,1.219-.334,1.219-.8,0-.436-.36-.667-.914-.744L9.2,73.925c-.249-.026-.443-.077-.443-.231,0-.18.194-.282.5-.282a2.12,2.12,0,0,1,.831.205l.249-.436Zm15.455-.257a.794.794,0,0,0-.692.359v-.308h-.582v2.463h.582V74.053c0-.411.194-.642.554-.642a1.74,1.74,0,0,1,.36.051l.166-.513a1.971,1.971,0,0,0-.388-.026Zm-7.423,1.283a1.285,1.285,0,0,0,1.413,1.283,1.451,1.451,0,0,0,.942-.282l-.277-.436a1.176,1.176,0,0,1-.692.231.756.756,0,0,1-.8-.8.784.784,0,0,1,.8-.8,1.176,1.176,0,0,1,.692.231l.277-.436a1.451,1.451,0,0,0-.942-.282,1.285,1.285,0,0,0-1.413,1.283Zm5.373,0V72.975h-.582v.308a1.033,1.033,0,0,0-.831-.359,1.284,1.284,0,1,0,0,2.566.96.96,0,0,0,.831-.359v.308h.582Zm-2.133,0a.8.8,0,0,1,1.606,0,.8.8,0,0,1-1.606,0Zm-6.952-1.283a1.284,1.284,0,1,0,.028,2.566,1.783,1.783,0,0,0,1.08-.334l-.277-.385a1.39,1.39,0,0,1-.776.257.739.739,0,0,1-.8-.59H15.87v-.205a1.168,1.168,0,0,0-1.219-1.309Zm0,.462a.629.629,0,0,1,.665.59H13.931a.684.684,0,0,1,.72-.59Zm14.43.821V72H28.5v1.283a1.033,1.033,0,0,0-.831-.359,1.284,1.284,0,1,0,0,2.566.96.96,0,0,0,.831-.359v.308h.582Zm-2.133,0a.8.8,0,0,1,1.606,0,.8.8,0,0,1-1.606,0Zm-19.443,0V72.975H6.924v.308a1.033,1.033,0,0,0-.831-.359,1.284,1.284,0,1,0,0,2.566.96.96,0,0,0,.831-.359v.308h.582Zm-2.16,0a.768.768,0,0,1,.8-.8.77.77,0,0,1,.8.8.8.8,0,0,1-1.606,0Z" transform="translate(0 -51.061)" fill="#fff"/>
      </g>
    </g>
  </g>
</svg>
