<svg xmlns="http://www.w3.org/2000/svg" xmlns:xlink="http://www.w3.org/1999/xlink" width="87.295" height="29.2" viewBox="0 0 87.295 29.2">
  <defs>
    <clipPath id="clip-path">
      <path id="Path_382" data-name="Path 382" d="M19.509,12.331V10.3a9.153,9.153,0,0,0-18.3-.317v2.341H.818A.819.819,0,0,0,0,13.151v6.527A10.357,10.357,0,0,0,10.354,30.033h0A10.357,10.357,0,0,0,20.711,19.679V13.151a.819.819,0,0,0-.818-.819ZM4.353,9.99a6.009,6.009,0,1,1,12.018,0v2.341H4.353Z" transform="translate(0 -0.991)" fill="none"/>
    </clipPath>
  </defs>
  <g id="Layer_2" data-name="Layer 2" transform="translate(0)">
    <g id="Content" transform="translate(0)">
      <path id="Path_380" data-name="Path 380" d="M26.033,11.55H22.887v-2.4a6.009,6.009,0,1,0-12.018,0v2.4H7.73v-2.4a9.149,9.149,0,1,1,18.3,0Z" transform="translate(-6.524)" fill="#d5d5d9"/>
      <path id="Path_381" data-name="Path 381" d="M.517,73.65H20.195a.517.517,0,0,1,.517.523v12.2a4.983,4.983,0,0,1-4.983,4.983H4.983A4.983,4.983,0,0,1,0,86.367V74.173a.517.517,0,0,1,.517-.517Z" transform="translate(0 -62.155)" fill="#8ebd00"/>
      <g id="Group_615" data-name="Group 615" transform="translate(0 0.155)" clip-path="url(#clip-path)">
        <rect id="Rectangle_197" data-name="Rectangle 197" width="10.356" height="17.701" transform="translate(10.356 11.34)" fill="#134200" opacity="0.1" style="mix-blend-mode: multiply;isolation: isolate"/>
      </g>
      <path id="Path_383" data-name="Path 383" d="M34.153,103.463,29.29,98.9l2.074-1.943,2.789,2.614,5.6-5.255,2.073,1.945Z" transform="translate(-24.719 -79.599)" fill="#fff"/>
      <path id="Path_384" data-name="Path 384" d="M170.747,37.526a7.526,7.526,0,0,1-1.083-.506,3.246,3.246,0,0,1-.816-.657,2.725,2.725,0,0,1-.524-.915,3.9,3.9,0,0,1-.179-1.278,3.863,3.863,0,0,1,.312-1.6,3.17,3.17,0,0,1,.879-1.163,3.845,3.845,0,0,1,1.359-.71,6.21,6.21,0,0,1,1.793-.24,8.475,8.475,0,0,1,1.7.156,13.085,13.085,0,0,1,1.661.468,6.35,6.35,0,0,1-.568,2.029l-.542-.212a4.09,4.09,0,0,0-.587-.178,6.632,6.632,0,0,0-.7-.115,7.947,7.947,0,0,0-.888-.044,3.59,3.59,0,0,0-.613.053,1.7,1.7,0,0,0-.559.2,1.127,1.127,0,0,0-.409.417,1.433,1.433,0,0,0-.156.72,1.261,1.261,0,0,0,.125.595,1.238,1.238,0,0,0,.337.409,2.111,2.111,0,0,0,.476.275c.178.076.354.156.532.222l1.066.409q.674.267,1.225.549a3.326,3.326,0,0,1,.936.7,2.95,2.95,0,0,1,.584,1.014,4.384,4.384,0,0,1,.22,1.473,4.058,4.058,0,0,1-.329,1.651,3.546,3.546,0,0,1-.949,1.278,4.5,4.5,0,0,1-1.536.835,6.721,6.721,0,0,1-2.105.293c-.39,0-.74-.011-1.047-.036a7.524,7.524,0,0,1-.879-.115,7.959,7.959,0,0,1-.826-.2q-.409-.125-.852-.3a7.491,7.491,0,0,1,.2-1.074q.142-.56.337-1.127a9.422,9.422,0,0,0,1.4.453,6.3,6.3,0,0,0,1.4.156,3.191,3.191,0,0,0,1.757-.417,1.415,1.415,0,0,0,.64-1.269,1.52,1.52,0,0,0-.156-.712,1.581,1.581,0,0,0-.39-.479,2.407,2.407,0,0,0-.542-.328q-.3-.133-.624-.258Z" transform="translate(-141.61 -25.703)" fill="#262626"/>
      <path id="Path_385" data-name="Path 385" d="M234.35,31.84H241.6a5.566,5.566,0,0,1,.106,1.083,5.739,5.739,0,0,1-.106,1.118h-4.646v2.77h3.694a6.045,6.045,0,0,1,.106,1.1,5.932,5.932,0,0,1-.106,1.118h-3.694V42.4h4.777a5.565,5.565,0,0,1,.106,1.083,5.775,5.775,0,0,1-.106,1.119H234.35Z" transform="translate(-197.774 -26.871)" fill="#262626"/>
      <path id="Path_386" data-name="Path 386" d="M301.395,41.022a7.051,7.051,0,0,1,.382,1.021A7.267,7.267,0,0,1,302,43.1a8.5,8.5,0,0,1-1.665.443,11.237,11.237,0,0,1-1.589.106,6.641,6.641,0,0,1-2.653-.489,5.243,5.243,0,0,1-1.909-1.367,5.817,5.817,0,0,1-1.163-2.085,8.491,8.491,0,0,1-.392-2.628,8.261,8.261,0,0,1,.421-2.639,6.149,6.149,0,0,1,1.182-2.1,5.321,5.321,0,0,1,1.9-1.384,6.282,6.282,0,0,1,2.566-.5,10.886,10.886,0,0,1,1.572.106,6.908,6.908,0,0,1,1.553.446,3.948,3.948,0,0,1-.212,1.038q-.178.509-.392,1.022a7.876,7.876,0,0,0-1.1-.3,6.309,6.309,0,0,0-1.136-.089,3.2,3.2,0,0,0-2.619,1.11,5.084,5.084,0,0,0-.915,3.295q0,4.331,3.676,4.333a6.613,6.613,0,0,0,1.153-.089A7.6,7.6,0,0,0,301.395,41.022Z" transform="translate(-246.956 -25.7)" fill="#262626"/>
      <path id="Path_387" data-name="Path 387" d="M364.62,31.359a6.567,6.567,0,0,1,.656-.072c.214-.011.432-.017.657-.017s.409,0,.624.017.431.036.657.072v6.622a18.449,18.449,0,0,0,.08,1.856,3.92,3.92,0,0,0,.32,1.278,1.587,1.587,0,0,0,.674.746,2.311,2.311,0,0,0,1.127.24,2.263,2.263,0,0,0,1.119-.24,1.614,1.614,0,0,0,.666-.746,3.962,3.962,0,0,0,.312-1.278,17.95,17.95,0,0,0,.081-1.856V31.359c.236-.036.468-.059.674-.072s.42-.017.624-.017.429,0,.648.017a6.581,6.581,0,0,1,.666.072v7.179a12.091,12.091,0,0,1-.212,2.366,4.617,4.617,0,0,1-.763,1.837,3.605,3.605,0,0,1-1.473,1.181,6.785,6.785,0,0,1-4.682,0,3.6,3.6,0,0,1-1.475-1.181,4.64,4.64,0,0,1-.765-1.837,12.215,12.215,0,0,1-.212-2.371Z" transform="translate(-307.712 -26.39)" fill="#262626"/>
      <path id="Path_388" data-name="Path 388" d="M442.149,30.658q.78-.089,1.466-.156c.456-.041.961-.062,1.519-.062a10.442,10.442,0,0,1,1.926.178,5.219,5.219,0,0,1,1.717.624,3.541,3.541,0,0,1,1.235,1.225,3.734,3.734,0,0,1,.468,1.962,4.01,4.01,0,0,1-.178,1.249,3.805,3.805,0,0,1-.453.951,3.915,3.915,0,0,1-.595.7,4.255,4.255,0,0,1-.6.468l-.3.2,3.107,5.4c-.237.023-.485.048-.746.072s-.528.036-.8.036a8.209,8.209,0,0,1-1.331-.108l-3.34-5.914.426-.212c.165-.083.367-.189.6-.312a3.781,3.781,0,0,0,.687-.493,2.644,2.644,0,0,0,.559-.71,2.388,2.388,0,0,0-.418-2.631,2.522,2.522,0,0,0-1.651-.523,4.314,4.314,0,0,0-.71.053V43.425c-.212.023-.426.044-.638.061s-.421.028-.624.028-.415,0-.64-.019-.456-.036-.693-.07Z" transform="translate(-373.133 -25.689)" fill="#262626"/>
      <path id="Path_389" data-name="Path 389" d="M510.92,31.84h7.245a5.564,5.564,0,0,1,.106,1.083,5.732,5.732,0,0,1-.106,1.118h-4.653v2.77h3.693a5.914,5.914,0,0,1,.108,1.1,5.805,5.805,0,0,1-.108,1.118h-3.693V42.4h4.776a5.442,5.442,0,0,1,.106,1.083,5.645,5.645,0,0,1-.106,1.119H510.92Z" transform="translate(-431.178 -26.871)" fill="#262626"/>
      <path id="Path_390" data-name="Path 390" d="M168.51,138.2a3.478,3.478,0,0,1-.495-.231,1.456,1.456,0,0,1-.373-.3,1.249,1.249,0,0,1-.24-.418,1.793,1.793,0,0,1-.084-.584,1.77,1.77,0,0,1,.142-.732,1.437,1.437,0,0,1,.4-.531,1.769,1.769,0,0,1,.624-.326,2.891,2.891,0,0,1,.819-.109,3.932,3.932,0,0,1,.78.073,5.851,5.851,0,0,1,.76.211,2.9,2.9,0,0,1-.261.926l-.248-.1a1.9,1.9,0,0,0-.267-.081,3.07,3.07,0,0,0-.322-.053,3.892,3.892,0,0,0-.406-.02,1.551,1.551,0,0,0-.279.025.742.742,0,0,0-.256.089.51.51,0,0,0-.187.19.656.656,0,0,0-.073.329.551.551,0,0,0,.211.459.962.962,0,0,0,.22.13c.081.036.156.069.243.1l.487.187c.206.081.393.165.56.251a1.487,1.487,0,0,1,.426.322,1.344,1.344,0,0,1,.273.468,2.04,2.04,0,0,1,.1.671,1.853,1.853,0,0,1-.156.754,1.607,1.607,0,0,1-.435.585,2.046,2.046,0,0,1-.7.382,3.061,3.061,0,0,1-.961.137,4.531,4.531,0,0,1-.479-.016,3.921,3.921,0,0,1-.4-.053c-.126-.025-.253-.056-.378-.094s-.254-.084-.389-.139a3.294,3.294,0,0,1,.089-.49c.044-.172.1-.343.156-.517a4.111,4.111,0,0,0,.641.208,2.9,2.9,0,0,0,.649.059,1.455,1.455,0,0,0,.8-.19.646.646,0,0,0,.292-.581.7.7,0,0,0-.069-.325.746.746,0,0,0-.178-.22,1.092,1.092,0,0,0-.248-.156c-.092-.041-.187-.08-.284-.117Z" transform="translate(-141.07 -113.904)" fill="#bababd"/>
      <path id="Path_391" data-name="Path 391" d="M195.889,138.2a3.5,3.5,0,0,1-.489-.231,1.485,1.485,0,0,1-.373-.3,1.222,1.222,0,0,1-.239-.418,1.751,1.751,0,0,1-.086-.584,1.77,1.77,0,0,1,.142-.732,1.459,1.459,0,0,1,.4-.531,1.748,1.748,0,0,1,.624-.326,2.9,2.9,0,0,1,.821-.109,3.943,3.943,0,0,1,.78.073,5.83,5.83,0,0,1,.759.211,2.9,2.9,0,0,1-.259.926l-.248-.1a1.929,1.929,0,0,0-.268-.081,3.037,3.037,0,0,0-.32-.053,3.922,3.922,0,0,0-.407-.02,1.561,1.561,0,0,0-.279.025.754.754,0,0,0-.256.089.523.523,0,0,0-.187.19.655.655,0,0,0-.072.329.593.593,0,0,0,.056.272.559.559,0,0,0,.156.187.919.919,0,0,0,.219.13c.081.036.156.069.243.1l.489.187c.2.081.392.165.56.251a1.531,1.531,0,0,1,.426.322,1.366,1.366,0,0,1,.272.468,2,2,0,0,1,.1.671,1.853,1.853,0,0,1-.156.754,1.622,1.622,0,0,1-.434.585,2.075,2.075,0,0,1-.7.382,3.07,3.07,0,0,1-.963.137,4.558,4.558,0,0,1-.479-.016,3.843,3.843,0,0,1-.4-.053c-.128-.025-.253-.056-.378-.094s-.254-.084-.39-.139a3.75,3.75,0,0,1,.089-.49c.044-.172.1-.343.156-.517a4.213,4.213,0,0,0,.641.208,2.918,2.918,0,0,0,.641.069,1.452,1.452,0,0,0,.8-.19.648.648,0,0,0,.293-.581.676.676,0,0,0-.07-.325.7.7,0,0,0-.178-.22,1.093,1.093,0,0,0-.248-.156c-.092-.041-.186-.08-.284-.117Z" transform="translate(-164.185 -113.904)" fill="#bababd"/>
      <path id="Path_392" data-name="Path 392" d="M224.93,135.33a3.561,3.561,0,0,1,.576-.05,3.771,3.771,0,0,1,.593.05v4.815h2.029a2.066,2.066,0,0,1,.033.264v.495a2.085,2.085,0,0,1-.033.265h-3.2Z" transform="translate(-189.824 -114.166)" fill="#bababd"/>
      <path id="Path_393" data-name="Path 393" d="M262,135.6h3.313a2.5,2.5,0,0,1,.048.495,2.576,2.576,0,0,1-.048.512h-2.124v1.266h1.689a2.727,2.727,0,0,1,.048.5,2.676,2.676,0,0,1-.048.512h-1.689v1.542h2.185a2.5,2.5,0,0,1,.05.5,2.6,2.6,0,0,1-.05.512H262Z" transform="translate(-221.108 -114.436)" fill="#bababd"/>
      <path id="Path_394" data-name="Path 394" d="M289.65,135.33a2.5,2.5,0,0,1,.479-.05,2.7,2.7,0,0,1,.5.05l2.258,3.719V135.33a3.374,3.374,0,0,1,.56-.05,2.385,2.385,0,0,1,.487.05v5.837a2.7,2.7,0,0,1-.468.048,2.892,2.892,0,0,1-.495-.048l-2.274-3.711v3.711a2.975,2.975,0,0,1-.528.048,2.824,2.824,0,0,1-.52-.048Z" transform="translate(-244.443 -114.166)" fill="#bababd"/>
      <path id="Path_395" data-name="Path 395" d="M327.472,139.817a3.172,3.172,0,0,1,.173.468,3.256,3.256,0,0,1,.1.484,3.886,3.886,0,0,1-.76.2,5.047,5.047,0,0,1-.727.048,3.058,3.058,0,0,1-1.21-.223,2.4,2.4,0,0,1-.872-.624,2.653,2.653,0,0,1-.532-.954,3.9,3.9,0,0,1-.178-1.2,3.8,3.8,0,0,1,.186-1.206,2.837,2.837,0,0,1,.54-.961,2.433,2.433,0,0,1,.869-.634,2.884,2.884,0,0,1,1.174-.228,5.094,5.094,0,0,1,.718.048,3.153,3.153,0,0,1,.712.2,1.771,1.771,0,0,1-.1.468q-.082.234-.178.468a3.464,3.464,0,0,0-.5-.137,2.81,2.81,0,0,0-.52-.041,1.461,1.461,0,0,0-1.2.507,2.336,2.336,0,0,0-.418,1.506q0,1.981,1.681,1.981a2.935,2.935,0,0,0,.528-.041A3.386,3.386,0,0,0,327.472,139.817Z" transform="translate(-272.983 -113.919)" fill="#bababd"/>
      <path id="Path_396" data-name="Path 396" d="M356.92,135.068c.239-.028.468-.05.67-.07s.44-.028.695-.028a4.894,4.894,0,0,1,.882.081,2.411,2.411,0,0,1,.78.289,1.614,1.614,0,0,1,.563.56,1.7,1.7,0,0,1,.215.9,1.827,1.827,0,0,1-.081.573,1.772,1.772,0,0,1-.479.755,1.794,1.794,0,0,1-.276.214l-.137.091,1.42,2.468-.34.033c-.119.011-.242.017-.365.017a3.754,3.754,0,0,1-.609-.05l-1.52-2.711.2-.1c.076-.037.169-.086.276-.147a1.7,1.7,0,0,0,.312-.223,1.2,1.2,0,0,0,.254-.325,1.074,1.074,0,0,0-.186-1.2,1.158,1.158,0,0,0-.755-.239,2.057,2.057,0,0,0-.325.023v4.929c-.1.009-.2.02-.293.028s-.192.012-.284.012-.189,0-.292-.009-.209-.016-.312-.031Z" transform="translate(-301.213 -113.904)" fill="#bababd"/>
      <path id="Path_397" data-name="Path 397" d="M386,139.106l-1.82-3.746a4.79,4.79,0,0,1,.682-.05,3.927,3.927,0,0,1,.624.05l1.154,2.653,1.136-2.653a3.808,3.808,0,0,1,.616-.05,4.3,4.3,0,0,1,.624.05l-1.818,3.746v2.1q-.156.023-.312.033h-.581a2.282,2.282,0,0,1-.312-.033Z" transform="translate(-324.219 -114.191)" fill="#bababd"/>
      <path id="Path_398" data-name="Path 398" d="M419.3,135.043c.25-.022.5-.039.755-.053s.512-.02.773-.02a4.383,4.383,0,0,1,.823.081,2.069,2.069,0,0,1,.755.3,1.679,1.679,0,0,1,.549.624,2.2,2.2,0,0,1,.211,1.032,2.169,2.169,0,0,1-.211,1.027,1.717,1.717,0,0,1-.545.624,1.973,1.973,0,0,1-.743.312,4.117,4.117,0,0,1-.808.081h-.2a.891.891,0,0,1-.175-.011v1.873a2.944,2.944,0,0,1-.3.031c-.1,0-.192.009-.284.009s-.181,0-.284-.009-.208-.016-.312-.031Zm1.186,3a1.121,1.121,0,0,0,.183.017h.208a1.562,1.562,0,0,0,.4-.053.949.949,0,0,0,.345-.175.855.855,0,0,0,.239-.322,1.2,1.2,0,0,0,.089-.49,1.293,1.293,0,0,0-.089-.509.854.854,0,0,0-.584-.51,1.5,1.5,0,0,0-.4-.053h-.167l-.223.02Z" transform="translate(-353.857 -113.904)" fill="#bababd"/>
      <path id="Path_399" data-name="Path 399" d="M448.793,136.607H447.34a2.581,2.581,0,0,1-.05-.512,2.5,2.5,0,0,1,.05-.495h4.1a2.5,2.5,0,0,1,.048.495,2.58,2.58,0,0,1-.048.512h-1.453v4.838c-.1.009-.2.02-.293.028s-.192.012-.284.012-.19,0-.3-.009-.212-.016-.32-.031Z" transform="translate(-377.479 -114.436)" fill="#bababd"/>
      <path id="Path_400" data-name="Path 400" d="M479.13,135.33a3.678,3.678,0,0,1,.593-.05,3.819,3.819,0,0,1,.6.05v5.837a3.707,3.707,0,0,1-1.194,0Z" transform="translate(-404.349 -114.166)" fill="#bababd"/>
      <path id="Path_401" data-name="Path 401" d="M495.621,141.029a2.625,2.625,0,0,1-1.136-.228,2.115,2.115,0,0,1-.78-.624,2.722,2.722,0,0,1-.459-.951,4.526,4.526,0,0,1-.156-1.2,4.628,4.628,0,0,1,.156-1.206,2.748,2.748,0,0,1,.459-.961,2.1,2.1,0,0,1,.78-.634,2.947,2.947,0,0,1,2.272,0,2.1,2.1,0,0,1,.78.634,2.747,2.747,0,0,1,.459.961,4.627,4.627,0,0,1,.156,1.206,4.528,4.528,0,0,1-.156,1.2,2.722,2.722,0,0,1-.459.951,2.114,2.114,0,0,1-.78.624A2.625,2.625,0,0,1,495.621,141.029Zm0-.991q1.26,0,1.258-2.013a2.918,2.918,0,0,0-.312-1.511,1.027,1.027,0,0,0-.946-.5q-1.274,0-1.275,2.013T495.621,140.038Z" transform="translate(-416.13 -113.93)" fill="#bababd"/>
      <path id="Path_402" data-name="Path 402" d="M531.84,135.33a2.5,2.5,0,0,1,.479-.05,2.7,2.7,0,0,1,.5.05l2.258,3.719V135.33a3.374,3.374,0,0,1,.56-.05,2.385,2.385,0,0,1,.487.05v5.837a2.7,2.7,0,0,1-.468.048,2.893,2.893,0,0,1-.495-.048l-2.274-3.711v3.711a2.976,2.976,0,0,1-.528.048,2.824,2.824,0,0,1-.52-.048Z" transform="translate(-448.833 -114.166)" fill="#bababd"/>
    </g>
  </g>
</svg>
