<svg xmlns="http://www.w3.org/2000/svg" width="58" height="35" viewBox="0 0 58 35">
  <g id="Rounded" transform="translate(-0.404)">
    <g id="Large">
      <g id="large_visa" data-name="large/visa">
        <rect id="Background" width="58" height="35" rx="4" transform="translate(0.404)" fill="#25459a"/>
        <g id="Logo" transform="translate(9.306 11.633)">
          <path id="Shape" d="M19.853-36.281c-.022,1.62,1.539,2.525,2.715,3.062,1.208.552,1.614.905,1.609,1.4-.009.755-.964,1.088-1.857,1.1a6.819,6.819,0,0,1-3.185-.711l-.561,2.465a9.879,9.879,0,0,0,3.449.6c3.258,0,5.389-1.509,5.4-3.849.013-2.969-4.377-3.134-4.347-4.461.01-.4.42-.832,1.316-.941a6.184,6.184,0,0,1,3.058.5L28-39.5a8.8,8.8,0,0,0-2.9-.5c-3.066,0-5.223,1.53-5.24,3.719m13.382-3.513a1.417,1.417,0,0,0-1.32.825L27.262-28.543h3.255l.648-1.68h3.978l.376,1.68h2.869l-2.5-11.252H33.235m.455,3.04.939,4.225H32.057l1.633-4.225m-17.784-3.04L13.34-28.543h3.1l2.565-11.252h-3.1m-4.589,0L8.089-32.136,6.783-38.648a1.423,1.423,0,0,0-1.431-1.147H.074L0-39.468a13.507,13.507,0,0,1,3.06.957,1.239,1.239,0,0,1,.737.989l2.474,8.979H9.549l5.026-11.252H11.317" transform="translate(0 40)" fill="#fff"/>
        </g>
      </g>
    </g>
  </g>
</svg>
