<svg xmlns="http://www.w3.org/2000/svg" width="33.327" height="25" viewBox="0 0 33.327 25">
  <path id="Icon_ionic-logo-youtube" data-name="Icon ionic-logo-youtube" d="M33.11,10.021a5.06,5.06,0,0,0-4.817-5.286C24.686,4.565,21.008,4.5,17.252,4.5H16.08c-3.75,0-7.434.065-11.041.234a5.072,5.072,0,0,0-4.811,5.3C.065,12.351-.007,14.669,0,16.986s.065,4.635.221,6.959a5.078,5.078,0,0,0,4.811,5.306c3.789.176,7.675.254,11.627.247q5.937.02,11.627-.247A5.078,5.078,0,0,0,33.1,23.946c.156-2.324.228-4.642.221-6.966Q33.344,13.5,33.11,10.021ZM13.476,23.373V10.58l9.44,6.393Z" transform="translate(0 -4.5)" fill="#77243b"/>
</svg>
