<svg xmlns="http://www.w3.org/2000/svg" xmlns:xlink="http://www.w3.org/1999/xlink" width="59.821" height="52.214" viewBox="0 0 59.821 52.214">
  <defs>
    <clipPath id="clip-path">
      <rect x="-26" y="-16" width="59.821" height="52.214" fill="none"/>
    </clipPath>
  </defs>
  <g id="Scroll_Group_1" data-name="Scroll Group 1" transform="translate(26 16)" clip-path="url(#clip-path)" style="isolation: isolate">
    <path id="Icon_awesome-video" data-name="Icon awesome-video" d="M32.179,4.5H4.576A4.525,4.525,0,0,0,0,8.973V35.96a4.525,4.525,0,0,0,4.576,4.473h27.6a4.525,4.525,0,0,0,4.576-4.473V8.973A4.525,4.525,0,0,0,32.179,4.5Zm18.13,3.528L39.818,15.1V29.84l10.491,7.065a3.128,3.128,0,0,0,3.158.208,2.993,2.993,0,0,0,1.665-2.631V10.442A3,3,0,0,0,53.461,7.82a3.13,3.13,0,0,0-3.153.208Z" transform="translate(-23.311 -12.5)"/>
  </g>
</svg>
