<svg xmlns="http://www.w3.org/2000/svg" width="53.765" height="40" viewBox="0 0 53.765 40">
  <g id="Group_980" data-name="Group 980" transform="translate(-928 -1466)">
    <rect id="Rectangle_5" data-name="Rectangle 5" width="40" height="40" rx="20" transform="translate(928 1466)" fill="rgba(89,4,229,0.18)"/>
    <path id="Icon_ionic-ios-laptop" data-name="Icon ionic-ios-laptop" d="M31.5,25.84V9.077a1.217,1.217,0,0,0-1.209-1.2H5.709A1.212,1.212,0,0,0,4.5,9.077V25.84H1.118a2.042,2.042,0,0,0,1.329,1.6,9.329,9.329,0,0,0,3.459.689H30.094a9.313,9.313,0,0,0,3.4-.619,2.121,2.121,0,0,0,1.392-1.666H31.5ZM18,8.438a.281.281,0,1,1-.281.281A.282.282,0,0,1,18,8.438ZM5.766,9.577H30.234a.141.141,0,0,1,.141.141V24.574a.141.141,0,0,1-.141.141H5.766a.141.141,0,0,1-.141-.141V9.717A.137.137,0,0,1,5.766,9.577ZM20.974,26.4H15.026a.838.838,0,0,1-.682-.527h7.313A.7.7,0,0,1,20.974,26.4Z" transform="translate(946.883 1471.125)" fill="#5904e5"/>
  </g>
</svg>
