<svg xmlns="http://www.w3.org/2000/svg" width="70" height="70" viewBox="0 0 70 70">
  <g id="Group_1127" data-name="Group 1127" transform="translate(-928 -1515)">
    <g id="Path_1190" data-name="Path 1190" transform="translate(928 1515)" fill="#fff">
      <path d="M 35 69.5 C 30.34230995178223 69.5 25.82420921325684 68.58789825439453 21.57118988037109 66.78901672363281 C 17.46302032470703 65.05140686035156 13.77340030670166 62.56377029418945 10.60480976104736 59.39519119262695 C 7.436230182647705 56.22660064697266 4.94858980178833 52.53697967529297 3.21097993850708 48.42881011962891 C 1.412099957466125 44.17578887939453 0.5 39.65768814086914 0.5 35 C 0.5 30.34230995178223 1.412099957466125 25.82420921325684 3.21097993850708 21.57118988037109 C 4.94858980178833 17.46302032470703 7.436230182647705 13.77340030670166 10.60480976104736 10.60480976104736 C 13.77340030670166 7.436230182647705 17.46302032470703 4.94858980178833 21.57118988037109 3.21097993850708 C 25.82420921325684 1.412099957466125 30.34230995178223 0.5 35 0.5 C 39.65768814086914 0.5 44.17578887939453 1.412099957466125 48.42881011962891 3.21097993850708 C 52.53697967529297 4.94858980178833 56.22660064697266 7.436230182647705 59.39519119262695 10.60480976104736 C 62.56377029418945 13.77340030670166 65.05140686035156 17.46302032470703 66.78901672363281 21.57118988037109 C 68.58789825439453 25.82420921325684 69.5 30.34230995178223 69.5 35 C 69.5 39.65768814086914 68.58789825439453 44.17578887939453 66.78901672363281 48.42881011962891 C 65.05140686035156 52.53697967529297 62.56377029418945 56.22660064697266 59.39519119262695 59.39519119262695 C 56.22660064697266 62.56377029418945 52.53697967529297 65.05140686035156 48.42881011962891 66.78901672363281 C 44.17578887939453 68.58789825439453 39.65768814086914 69.5 35 69.5 Z" stroke="none"/>
      <path d="M 35 1 C 30.40959167480469 1 25.9570198059082 1.898811340332031 21.76596832275391 3.671478271484375 C 17.71738815307617 5.383880615234375 14.0811882019043 7.835540771484375 10.95837020874023 10.95837020874023 C 7.835540771484375 14.0811882019043 5.383880615234375 17.71738815307617 3.671478271484375 21.76596832275391 C 1.898811340332031 25.9570198059082 1 30.40959167480469 1 35 C 1 39.59040832519531 1.898811340332031 44.0429801940918 3.671478271484375 48.23403167724609 C 5.383880615234375 52.28260803222656 7.835540771484375 55.91880798339844 10.95837020874023 59.04162979125977 C 14.0811882019043 62.16445922851562 17.71738815307617 64.61611938476562 21.76596832275391 66.32852172851562 C 25.9570198059082 68.10118865966797 30.40959167480469 69 35 69 C 39.59040832519531 69 44.0429801940918 68.10118865966797 48.23403167724609 66.32852172851562 C 52.28260803222656 64.61611938476562 55.91880798339844 62.16445922851562 59.04162979125977 59.04162979125977 C 62.16445922851562 55.91880798339844 64.61611938476562 52.28260803222656 66.32852172851562 48.23403167724609 C 68.10118865966797 44.0429801940918 69 39.59040832519531 69 35 C 69 30.40959167480469 68.10118865966797 25.9570198059082 66.32852172851562 21.76596832275391 C 64.61611938476562 17.71738815307617 62.16445922851562 14.0811882019043 59.04162979125977 10.95837020874023 C 55.91880798339844 7.835540771484375 52.28260803222656 5.383880615234375 48.23403167724609 3.671478271484375 C 44.0429801940918 1.898811340332031 39.59040832519531 1 35 1 M 35 0 C 54.32997131347656 0 70 15.67002868652344 70 35 C 70 54.32997131347656 54.32997131347656 70 35 70 C 15.67002868652344 70 0 54.32997131347656 0 35 C 0 15.67002868652344 15.67002868652344 0 35 0 Z" stroke="none" fill="#ac1c43"/>
    </g>
    <g id="Icon_feather-map-pin" data-name="Icon feather-map-pin" transform="translate(945.5 1532.5)">
      <path id="Path_1190-2" data-name="Path 1190" d="M31.5,15C31.5,25.5,18,34.5,18,34.5S4.5,25.5,4.5,15a13.5,13.5,0,1,1,27,0Z" fill="none" stroke="#ac1c43" stroke-linecap="round" stroke-linejoin="round" stroke-width="3"/>
      <path id="Path_1191" data-name="Path 1191" d="M22.5,15A4.5,4.5,0,1,1,18,10.5,4.5,4.5,0,0,1,22.5,15Z" fill="none" stroke="#ac1c43" stroke-linecap="round" stroke-linejoin="round" stroke-width="3"/>
    </g>
  </g>
</svg>
