<svg xmlns="http://www.w3.org/2000/svg" width="52" height="35" viewBox="0 0 52 35">
  <g id="visa-color_large" transform="translate(-8.5 -7.5)">
    <rect id="card_bg" width="51" height="34" rx="4" transform="translate(9 8)" fill="#2a2a6c" stroke="snow" stroke-width="1"/>
    <path id="visa-logo" d="M18.265,10.22a7.651,7.651,0,0,1-2.8-.527l.462-2.147a5.388,5.388,0,0,0,2.551.645h.068c.764-.011,1.535-.317,1.535-.977.01-.42-.35-.755-1.331-1.235-.963-.471-2.243-1.263-2.243-2.695C16.511,1.351,18.277,0,20.8,0a6.885,6.885,0,0,1,2.4.441l-.45,2.147A4.844,4.844,0,0,0,20.7,2.123c-.157,0-.317.008-.473.023-.741.1-1.073.486-1.073.827,0,.416.532.695,1.205,1.047,1.068.559,2.4,1.256,2.391,2.893l.054-.086c-.011,2.061-1.768,3.392-4.476,3.392Zm7.114-.086H22.673l3.854-9.2A1.167,1.167,0,0,1,27.6.2h2.147l2.082,9.929H29.447l-.311-1.481H25.9l-.526,1.481Zm2.555-7.247L26.58,6.612h2.136ZM13.634,10.1H11.057L13.2.172H15.78L13.634,10.1ZM8,10.069H5.2L3.146,2.136a1.079,1.079,0,0,0-.613-.87A10.646,10.646,0,0,0,0,.429L.065.139H4.434a1.2,1.2,0,0,1,1.191,1.01L6.7,6.892,9.372.139h2.791L8,10.069Z" transform="translate(18.808 19.748)" fill="#fff"/>
  </g>
</svg>
